<svg xmlns="http://www.w3.org/2000/svg" width="1080" height="1080" viewBox="0 0 1080 1080" version="1.1"><path d="M 783.920 1.404 C 785.486 3.291, 788.348 3.549, 787.755 1.750 C 787.529 1.062, 786.275 0.344, 784.970 0.154 C 782.897 -0.148, 782.764 0.010, 783.920 1.404 M 840.078 1.750 C 844.492 7.592, 848 10.391, 848 8.071 C 848 6.641, 841.425 0, 840.009 0 C 839.030 0, 839.044 0.383, 840.078 1.750 M 861 2.100 C 861 4.832, 867.732 11.668, 869.087 10.313 C 870.532 8.868, 868.658 4.662, 865.440 2.131 C 862.033 -0.548, 861 -0.556, 861 2.100 M 905.988 1.977 C 907.315 4.457, 910.707 6.326, 912.578 5.608 C 913.360 5.308, 914 3.924, 914 2.531 C 914 0.195, 913.651 0, 909.465 0 C 905.257 0, 905.006 0.143, 905.988 1.977 M 921.004 1.250 C 921.011 3.539, 924.833 8.812, 926.979 9.493 C 931.407 10.899, 933.273 5.444, 929.797 1.256 C 928.416 -0.409, 920.999 -0.413, 921.004 1.250 M 939.207 1.595 C 937.178 5.221, 941.695 13, 945.830 13 C 950.627 13, 950.864 8.368, 946.342 2.995 C 943.573 -0.296, 940.592 -0.880, 939.207 1.595 M 1013.980 2.038 C 1011.780 6.148, 1016.262 13, 1021.151 13 C 1024.815 13, 1027.502 9.135, 1026.530 5.263 C 1025.460 1.001, 1024.107 0, 1019.413 0 C 1016.067 0, 1014.820 0.468, 1013.980 2.038 M 1034 2.045 C 1034 4.867, 1038.387 9, 1041.382 9 C 1044.143 9, 1048 4.842, 1048 1.865 C 1048 0.223, 1047.165 0, 1041 0 C 1034.615 0, 1034 0.180, 1034 2.045 M 1058.441 1.532 C 1060.942 3.424, 1064.416 3.409, 1066 1.500 C 1067.081 0.198, 1066.536 0.004, 1061.872 0.032 C 1056.931 0.061, 1056.656 0.181, 1058.441 1.532 M 995.750 2.080 C 992.842 3.774, 993.465 9.619, 996.923 13.077 C 1000.172 16.326, 1001.731 16.649, 1004.476 14.642 C 1007.544 12.398, 1006.906 7.199, 1003.151 3.844 C 999.730 0.787, 998.481 0.489, 995.750 2.080 M 414.980 3.524 C 414.284 4.362, 413.985 5.318, 414.314 5.648 C 415.338 6.672, 418 5.143, 418 3.531 C 418 1.573, 416.602 1.569, 414.980 3.524 M 957.200 3.200 C 955.489 4.911, 955.715 7.020, 958.010 10.785 C 961.267 16.127, 966.447 17.053, 967.590 12.497 C 969.065 6.622, 960.997 -0.597, 957.200 3.200 M 976.750 3.080 C 972.226 5.715, 976.607 16, 982.255 16 C 988.642 16, 988.349 6.783, 981.855 3.425 C 978.637 1.761, 978.976 1.784, 976.750 3.080 M 647.750 5.116 C 645.781 6.223, 645.440 8.536, 647.096 9.559 C 648.675 10.535, 650.899 7.803, 650.142 5.816 C 649.656 4.541, 649.075 4.371, 647.750 5.116 M 838.482 7.982 C 840.620 10.172, 842.594 11.740, 842.867 11.467 C 843.523 10.810, 836.897 4, 835.601 4 C 835.047 4, 836.344 5.792, 838.482 7.982 M 592.011 6.487 C 591.332 7.305, 591.045 8.675, 591.373 9.530 C 591.844 10.757, 592.397 10.858, 593.985 10.008 C 596.234 8.804, 596.240 8.790, 595.393 6.582 C 594.634 4.603, 593.598 4.574, 592.011 6.487 M 799.649 6.528 C 800.327 8.294, 803.897 10.436, 804.746 9.587 C 805.558 8.775, 801.961 5, 800.376 5 C 799.609 5, 799.307 5.635, 799.649 6.528 M 833 5.626 C 833 6.176, 834.350 7.919, 836 9.500 C 837.650 11.081, 839 11.924, 839 11.374 C 839 10.824, 837.650 9.081, 836 7.500 C 834.350 5.919, 833 5.076, 833 5.626 M 448.278 7.122 C 446.600 8.800, 447.840 11.378, 449.617 9.903 C 451.109 8.664, 451.507 6, 450.200 6 C 449.760 6, 448.895 6.505, 448.278 7.122 M 537.667 6.667 C 536.690 7.644, 536.853 11, 537.878 11 C 538.360 11, 539.299 10.345, 539.964 9.544 C 541.740 7.403, 539.605 4.729, 537.667 6.667 M 877 9.394 C 877 12.151, 882.031 18, 884.401 18 C 886.409 18, 886.442 15.755, 884.490 11.980 C 881.936 7.042, 877 5.337, 877 9.394 M 719 9.893 C 719 12.001, 721.590 13.473, 722.554 11.913 C 723.227 10.824, 721.295 8, 719.878 8 C 719.395 8, 719 8.852, 719 9.893 M 738 10.531 C 738 12.044, 740.637 13.697, 741.567 12.767 C 741.831 12.502, 741.763 11.547, 741.417 10.643 C 740.621 8.570, 738 8.484, 738 10.531 M 854 10.929 C 854 12.289, 860.542 19, 861.868 19 C 863.829 19, 863.113 17.262, 859.632 13.571 C 856.378 10.121, 854 9.005, 854 10.929 M 698.446 12.087 C 697.474 13.660, 699.575 15.377, 701.545 14.621 C 702.909 14.098, 702.993 13.697, 701.990 12.488 C 700.527 10.725, 699.369 10.594, 698.446 12.087 M 756 12.294 C 756 14.085, 758.787 16.546, 759.739 15.595 C 760.573 14.760, 758.823 11.774, 757.179 11.226 C 756.530 11.010, 756 11.491, 756 12.294 M 1063.452 13.646 C 1060.161 17.197, 1060.162 22.253, 1063.455 25.545 C 1066.453 28.544, 1068.905 28.649, 1072.365 25.927 C 1077.707 21.725, 1074.670 11, 1068.138 11 C 1066.909 11, 1064.801 12.191, 1063.452 13.646 M 480.688 12.646 C 479.272 14.061, 480.073 16, 482.073 16 C 483.471 16, 484.041 15.457, 483.823 14.333 C 483.466 12.492, 481.759 11.574, 480.688 12.646 M 815 12.791 C 815 14.140, 819.917 18.417, 820.639 17.695 C 820.994 17.339, 820.695 16.338, 819.975 15.470 C 818.293 13.443, 815 11.670, 815 12.791 M 893.355 13.518 C 891.840 17.465, 898.834 26.213, 901.641 23.883 C 903.809 22.084, 903.235 19.337, 899.896 15.535 C 896.583 11.761, 894.299 11.057, 893.355 13.518 M 774 14.878 C 774 17.282, 776.744 19.656, 778.033 18.367 C 778.631 17.769, 778.409 16.602, 777.434 15.209 C 775.540 12.506, 774 12.357, 774 14.878 M 851.502 18.413 C 854.019 21.714, 857 23.748, 857 22.165 C 857 21.183, 850.658 15, 849.652 15 C 849.237 15, 850.070 16.536, 851.502 18.413 M 911.034 17.459 C 909.190 19.681, 910.733 24.598, 914.185 27.503 C 916.561 29.501, 917.527 29.808, 918.612 28.907 C 920.938 26.977, 920.242 22.471, 917.099 19.106 C 913.851 15.629, 912.791 15.342, 911.034 17.459 M 622.571 18.571 C 620.685 20.458, 621.354 22, 624.059 22 C 625.314 22, 626 21.314, 626 20.059 C 626 17.354, 624.458 16.685, 622.571 18.571 M 791.461 18.063 C 790.783 19.160, 793.656 23, 795.155 23 C 796.425 23, 796.171 19.571, 794.800 18.200 C 793.319 16.719, 792.317 16.678, 791.461 18.063 M 847.826 19.314 C 851.190 22.895, 850.392 23.728, 846.750 20.437 L 843.500 17.500 846.232 20.536 C 847.734 22.206, 849.938 23.645, 851.129 23.735 C 853.084 23.882, 852.970 23.564, 849.950 20.449 C 848.112 18.552, 846.393 17, 846.130 17 C 845.867 17, 846.630 18.042, 847.826 19.314 M 676.480 19.032 C 676.092 19.660, 676.245 20.645, 676.820 21.220 C 678.164 22.564, 681.297 21.392, 680.750 19.749 C 680.194 18.078, 677.364 17.602, 676.480 19.032 M 1041.557 20.223 C 1038.617 24.419, 1040.285 30.477, 1045.089 33.048 C 1051.557 36.509, 1056.596 25.663, 1051.267 19.750 C 1048.968 17.199, 1043.488 17.465, 1041.557 20.223 M 869 19.997 C 869 21.284, 875.956 29, 877.116 29 C 878.942 29, 877.894 25.949, 874.896 22.535 C 871.924 19.149, 869 17.891, 869 19.997 M 567.200 21.200 C 566.540 21.860, 566 22.985, 566 23.700 C 566 25.536, 568.939 25.321, 569.664 23.433 C 570.491 21.279, 568.723 19.677, 567.200 21.200 M 928.667 20.667 C 928.300 21.033, 928 22.768, 928 24.521 C 928 30.203, 935.933 35.945, 937.639 31.498 C 939.413 26.876, 931.730 17.603, 928.667 20.667 M 831 21.734 C 831 23.174, 835.143 27.190, 835.874 26.459 C 836.160 26.173, 835.180 24.726, 833.697 23.242 C 832.214 21.759, 831 21.080, 831 21.734 M 511.755 24.500 C 511.234 27.226, 511.931 27.669, 513.800 25.800 C 515.423 24.177, 515.318 22, 513.617 22 C 512.856 22, 512.018 23.125, 511.755 24.500 M 1021.655 23.829 C 1019.417 26.301, 1019.568 31.181, 1021.976 34.242 C 1024.795 37.827, 1027.586 38.260, 1030.685 35.594 C 1032.926 33.667, 1033.194 32.847, 1032.607 29.721 C 1031.892 25.909, 1028.050 22, 1025.020 22 C 1024.080 22, 1022.565 22.823, 1021.655 23.829 M 808 23.772 C 808 25.207, 811.929 28.404, 812.721 27.613 C 813.110 27.223, 812.947 26.138, 812.357 25.202 C 811.186 23.342, 808 22.296, 808 23.772 M 946.200 24.200 C 944.533 25.867, 944.702 28.687, 946.669 32.017 C 951.587 40.342, 958.924 36.554, 954.490 27.980 C 952.230 23.611, 948.493 21.907, 946.200 24.200 M 963.958 26.550 C 960.709 30.466, 967.656 40.957, 971.786 38.371 C 972.729 37.781, 973.641 35.876, 973.814 34.137 C 974.055 31.712, 973.432 30.279, 971.141 27.987 C 967.800 24.647, 965.860 24.258, 963.958 26.550 M 1001.655 26.829 C 999.592 29.108, 999.564 31.257, 1001.548 35.093 C 1003.158 38.207, 1006.985 40.327, 1009.356 39.417 C 1011.763 38.493, 1013.070 34.314, 1011.907 31.256 C 1009.590 25.160, 1004.970 23.166, 1001.655 26.829 M 864 26.894 C 864 28.310, 870.923 35.411, 871.622 34.711 C 871.950 34.383, 871.238 32.738, 870.040 31.056 C 867.722 27.800, 864 25.236, 864 26.894 M 981.773 28.598 C 979.328 33.965, 987.248 42.529, 991.440 39.050 C 993.792 37.097, 993.322 32.536, 990.411 29.077 C 987.122 25.168, 983.429 24.963, 981.773 28.598 M 727.570 27.887 C 726.801 29.130, 729.678 31.317, 731.005 30.497 C 731.785 30.015, 731.763 29.419, 730.926 28.411 C 729.585 26.795, 728.363 26.604, 727.570 27.887 M 885 29.100 C 885 31.910, 891.732 38.668, 893.135 37.265 C 894.470 35.930, 891.864 30.719, 888.783 28.561 C 885.809 26.477, 885 26.593, 885 29.100 M 653.380 29.452 C 653.074 30.251, 653.128 31.398, 653.500 32.001 C 654.355 33.383, 657 31.401, 657 29.378 C 657 27.546, 654.088 27.606, 653.380 29.452 M 825 30.118 C 825 32.019, 828.733 35.601, 829.703 34.630 C 830.083 34.250, 829.180 32.726, 827.697 31.242 C 825.721 29.267, 825 28.966, 825 30.118 M 860 29.608 C 860 30.158, 861.575 32.134, 863.500 34 C 865.425 35.866, 867 36.942, 867 36.392 C 867 35.842, 865.425 33.866, 863.500 32 C 861.575 30.134, 860 29.058, 860 29.608 M 707.473 31.044 C 707.148 31.570, 707.160 32.450, 707.500 33 C 708.424 34.495, 711 34.206, 711 32.607 C 711 30.911, 708.296 29.713, 707.473 31.044 M 764 31.878 C 764 33.039, 766.909 35.424, 767.548 34.786 C 768.453 33.880, 766.814 31, 765.393 31 C 764.627 31, 764 31.395, 764 31.878 M 597.667 32.667 C 597.300 33.033, 597 34.453, 597 35.822 C 597 38.218, 597.072 38.245, 598.933 36.561 C 599.995 35.599, 600.622 34.179, 600.326 33.406 C 599.743 31.887, 598.728 31.605, 597.667 32.667 M 901 36.423 C 901 39.482, 905.560 45, 908.089 45 C 910.390 45, 910.487 43.842, 908.506 40.011 C 907.081 37.256, 903.436 34, 901.777 34 C 901.350 34, 901 35.090, 901 36.423 M 541.667 35.667 C 540.690 36.644, 540.853 40, 541.878 40 C 542.360 40, 543.299 39.345, 543.964 38.544 C 545.740 36.403, 543.605 33.729, 541.667 35.667 M 781 35.845 C 781 37.147, 784.581 40.086, 785.296 39.371 C 786.287 38.380, 784.097 35, 782.465 35 C 781.659 35, 781 35.380, 781 35.845 M 878.723 36.639 C 878.007 37.797, 882.403 43.610, 885.077 45.041 C 888.264 46.747, 887.376 44.326, 883.157 39.803 C 881.043 37.537, 879.048 36.113, 878.723 36.639 M 840 37.826 C 840 39.180, 844.936 43.397, 845.667 42.667 C 846.038 42.296, 845.286 40.869, 843.996 39.496 C 841.635 36.982, 840 36.299, 840 37.826 M 1069.174 39.314 C 1066.106 42.580, 1066.238 48.329, 1069.455 51.545 C 1072.526 54.616, 1075.033 54.658, 1077.826 51.686 C 1080.666 48.662, 1080.867 41.094, 1078.171 38.655 C 1075.589 36.318, 1071.723 36.602, 1069.174 39.314 M 685 39.427 C 685 40.354, 685.855 41, 687.083 41 C 689.520 41, 689.176 38.663, 686.667 38.177 C 685.680 37.985, 685 38.495, 685 39.427 M 799 39.878 C 799 42.520, 801.737 44.663, 803.219 43.181 C 804.064 42.336, 803.887 41.532, 802.521 40.024 C 800.234 37.496, 799 37.444, 799 39.878 M 917.312 41.631 C 916.453 43.869, 919.931 50.011, 922.796 51.317 C 927.533 53.475, 927.508 47.320, 922.759 42.250 C 920.274 39.597, 918.183 39.359, 917.312 41.631 M 629.562 42.581 C 628.693 43.450, 628.225 44.555, 628.523 45.037 C 629.427 46.500, 632 44.913, 632 42.893 C 632 40.589, 631.605 40.538, 629.562 42.581 M 874 41.594 C 874 42.144, 875.800 44.352, 878 46.500 C 880.200 48.648, 882 49.956, 882 49.406 C 882 48.856, 880.200 46.648, 878 44.500 C 875.800 42.352, 874 41.044, 874 41.594 M 816.601 42.837 C 815.970 43.857, 818.743 48, 820.057 48 C 821.404 48, 821.224 44.624, 819.800 43.200 C 818.393 41.793, 817.321 41.671, 816.601 42.837 M 1048 45 C 1043.545 49.455, 1047.225 59, 1053.398 59 C 1058.897 59, 1061.008 49.917, 1056.545 45.455 C 1053.570 42.479, 1050.675 42.325, 1048 45 M 934.667 44.667 C 933.156 46.177, 934.167 51.045, 936.589 53.923 C 939.356 57.212, 942.695 57.957, 943.639 55.498 C 945.504 50.639, 937.888 41.446, 934.667 44.667 M 893 46.656 C 893 47.922, 898.102 53.984, 900.041 55.022 C 903.150 56.686, 902.519 53.661, 898.896 49.535 C 896.137 46.392, 893 44.860, 893 46.656 M 951.881 49.361 C 949.781 53.970, 957.016 62.892, 960.505 59.996 C 964.284 56.860, 959.383 47, 954.044 47 C 953.446 47, 952.473 48.063, 951.881 49.361 M 1027.655 48.829 C 1024.406 52.419, 1026.248 59.457, 1031.118 62.063 C 1034.562 63.906, 1038 60.843, 1038 55.931 C 1038 49.010, 1031.518 44.560, 1027.655 48.829 M 572.036 49.456 C 570.389 51.441, 571.687 53.505, 573.589 51.926 C 575.147 50.633, 575.504 48, 574.122 48 C 573.640 48, 572.701 48.655, 572.036 49.456 M 833 48.772 C 833 50.207, 836.929 53.404, 837.721 52.613 C 838.110 52.223, 837.947 51.138, 837.357 50.202 C 836.186 48.342, 833 47.296, 833 48.772 M 463.160 50.240 C 461.531 51.869, 461.713 54.048, 463.423 53.391 C 465.133 52.735, 466.230 50.260, 465.116 49.572 C 464.678 49.301, 463.798 49.602, 463.160 50.240 M 661.446 50.087 C 661.077 50.685, 661.166 51.566, 661.645 52.045 C 662.828 53.228, 665.431 51.507, 664.569 50.112 C 663.696 48.698, 662.311 48.687, 661.446 50.087 M 969.806 51.526 C 967.450 56.698, 974.539 65.288, 978.470 62.025 C 980.995 59.930, 980.340 55.186, 977.077 51.923 C 973.488 48.334, 971.315 48.215, 969.806 51.526 M 1008 51 C 1005.402 53.598, 1005.475 55.923, 1008.284 60.102 C 1012.224 65.962, 1018 64.892, 1018 58.301 C 1018 55.816, 1017.179 54.026, 1015.077 51.923 C 1011.620 48.466, 1010.659 48.341, 1008 51 M 989.200 51.200 C 987.326 53.074, 987.789 58.462, 990.073 61.365 C 992.371 64.287, 996.072 64.823, 997.991 62.511 C 999.854 60.265, 998.372 54.438, 995.328 52.043 C 992.350 49.701, 990.899 49.501, 989.200 51.200 M 888 52.758 C 888 54.086, 894.968 61.365, 895.618 60.715 C 895.936 60.397, 895.390 59.068, 894.405 57.762 C 892.235 54.885, 888 51.576, 888 52.758 M 850 55.118 C 850 57.019, 853.733 60.601, 854.703 59.630 C 855.083 59.250, 854.180 57.726, 852.697 56.242 C 850.721 54.267, 850 53.966, 850 55.118 M 909 56.100 C 909 59.012, 915.734 65.666, 917.199 64.201 C 918.467 62.933, 916.127 58.620, 912.625 55.772 C 909.819 53.491, 909 53.565, 909 56.100 M 603.688 57.646 C 602.314 59.020, 603.026 61.142, 604.750 60.810 C 605.712 60.624, 606.500 59.841, 606.500 59.070 C 606.500 57.491, 604.736 56.598, 603.688 57.646 M 807 62 C 808.036 63.935, 811 64.824, 811 63.200 C 811 61.941, 808.735 60, 807.265 60 C 806.240 60, 806.178 60.464, 807 62 M 492.952 63.089 C 491.995 64.879, 492.096 65.128, 493.656 64.828 C 494.657 64.635, 495.628 63.695, 495.812 62.739 C 496.278 60.318, 494.306 60.560, 492.952 63.089 M 546.651 63.468 C 545.945 65.306, 547.820 66.580, 549.200 65.200 C 550.267 64.133, 549.500 62, 548.048 62 C 547.589 62, 546.960 62.661, 546.651 63.468 M 865.654 62.751 C 864.919 63.940, 869.727 68.606, 870.693 67.640 C 871.079 67.255, 870.236 65.781, 868.820 64.366 C 867.405 62.950, 865.980 62.223, 865.654 62.751 M 924.676 62.750 C 923.831 64.186, 925.832 67.681, 929.049 70.388 C 934.545 75.012, 935.751 70.261, 930.516 64.611 C 928.156 62.065, 925.566 61.240, 924.676 62.750 M 636.500 64 C 636.160 64.550, 636.148 65.430, 636.473 65.956 C 637.296 67.287, 640 66.089, 640 64.393 C 640 62.794, 637.424 62.505, 636.500 64 M 824 64.878 C 824 67.282, 826.744 69.656, 828.033 68.367 C 828.631 67.769, 828.409 66.602, 827.434 65.209 C 825.540 62.506, 824 62.357, 824 64.878 M 903 63.980 C 903 65.581, 909.744 72.589, 910.529 71.804 C 910.908 71.425, 910.238 69.738, 909.040 68.056 C 906.636 64.680, 903 62.226, 903 63.980 M 1074.866 65.981 C 1072.194 68.652, 1071.836 69.600, 1072.334 72.670 C 1073.010 76.834, 1075.524 80, 1078.155 80 C 1079.793 80, 1080 79.111, 1080 72.059 C 1080 67.691, 1079.545 63.837, 1078.989 63.493 C 1078.433 63.149, 1076.577 64.269, 1074.866 65.981 M 671.250 67.708 C 669.918 68.197, 669.488 71.010, 670.750 70.985 C 671.163 70.976, 672.171 70.545, 672.992 70.026 C 674.719 68.934, 673.248 66.976, 671.250 67.708 M 841.669 67.664 C 840.625 68.709, 840.868 69.726, 842.571 71.429 C 844.498 73.355, 846 73.454, 846 71.655 C 846 69.946, 842.558 66.775, 841.669 67.664 M 898.792 68.500 C 900.122 71.068, 906 76.686, 906 75.390 C 906 74.849, 904.145 72.627, 901.878 70.453 C 899.610 68.279, 898.222 67.400, 898.792 68.500 M 941.667 67.667 C 939.261 70.072, 944.566 79, 948.401 79 C 951.151 79, 950.360 73.597, 947.099 70.106 C 944.193 66.995, 942.913 66.420, 941.667 67.667 M 896.429 70.971 C 896.429 72.034, 896.636 72.697, 896.890 72.443 C 897.144 72.189, 898.398 72.964, 899.676 74.165 C 900.954 75.366, 902 75.904, 902 75.361 C 902 74.818, 900.746 73.173, 899.214 71.705 C 896.713 69.309, 896.429 69.234, 896.429 70.971 M 1053.655 70.829 C 1051.129 73.620, 1051.489 80.171, 1054.314 82.826 C 1058.986 87.214, 1064 84.378, 1064 77.346 C 1064 70.596, 1057.545 66.530, 1053.655 70.829 M 881 71.773 C 881 73.370, 884.982 77.351, 885.780 76.553 C 886.118 76.216, 885.180 74.726, 883.697 73.242 C 882.214 71.759, 881 71.098, 881 71.773 M 959.123 72.277 C 957.592 73.808, 957.714 76.545, 959.463 79.928 C 961.709 84.271, 966.391 85.494, 967.492 82.026 C 968.942 77.458, 962.013 69.387, 959.123 72.277 M 858 73.566 C 858 74.950, 860.081 77.817, 861.472 78.351 C 863.495 79.127, 863.466 76.609, 861.429 74.571 C 859.876 73.019, 858 72.469, 858 73.566 M 917 73.497 C 917 74.427, 924.229 82, 925.116 82 C 926.783 82, 925.997 80.067, 922.896 76.535 C 920.248 73.518, 917 71.845, 917 73.497 M 1033.200 74.200 C 1031.007 76.393, 1031.753 82.844, 1034.521 85.612 C 1037.618 88.709, 1040.907 88.440, 1042.870 84.931 C 1046.428 78.571, 1038.086 69.314, 1033.200 74.200 M 976.032 75.461 C 975.108 76.575, 975.088 77.736, 975.947 80.340 C 977.393 84.720, 980.207 87.250, 983.168 86.830 C 986.716 86.328, 986.873 81.191, 983.464 77.140 C 980.607 73.745, 977.954 73.145, 976.032 75.461 M 522.639 75.694 C 521.403 76.930, 522.017 80, 523.500 80 C 524.325 80, 525 79.127, 525 78.059 C 525 75.972, 523.682 74.651, 522.639 75.694 M 994.667 75.667 C 993.001 77.332, 994.081 83.796, 996.452 86.354 C 999.287 89.413, 1001.181 89.676, 1003.521 87.336 C 1005.629 85.228, 1004.825 80.507, 1001.810 77.298 C 999.743 75.097, 996.074 74.259, 994.667 75.667 M 1012.950 77.093 C 1010.674 81.346, 1015.011 89, 1019.696 89 C 1022.567 89, 1024.531 85.253, 1023.601 81.548 C 1022.120 75.647, 1015.260 72.778, 1012.950 77.093 M 611.345 79.543 C 611.019 80.392, 611.023 81.356, 611.352 81.686 C 612.217 82.550, 615.083 79.944, 614.430 78.887 C 613.576 77.506, 611.998 77.842, 611.345 79.543 M 915.500 83 C 917.648 85.200, 919.856 87, 920.406 87 C 920.956 87, 919.648 85.200, 917.500 83 C 915.352 80.800, 913.144 79, 912.594 79 C 912.044 79, 913.352 80.800, 915.500 83 M 875.030 82.056 C 876.213 84.267, 878.698 85.635, 879.704 84.630 C 880.566 83.768, 876.990 80, 875.310 80 C 874.227 80, 874.167 80.443, 875.030 82.056 M 909.750 81.953 C 911.871 84.409, 911.136 85.127, 908.250 83.418 C 905.527 81.807, 905.529 81.816, 908.461 84.351 C 910.089 85.759, 911.628 86.705, 911.880 86.454 C 912.132 86.202, 913.162 86.741, 914.169 87.653 C 915.176 88.564, 916 88.879, 916 88.351 C 916 87.824, 914.313 85.843, 912.250 83.949 C 910.188 82.055, 909.063 81.157, 909.750 81.953 M 933 82.894 C 933 85.256, 938.245 91, 940.401 91 C 942.372 91, 942.381 90.638, 940.506 87.011 C 939.081 84.256, 935.436 81, 933.777 81 C 933.350 81, 933 81.852, 933 82.894 M 645.667 82.667 C 645.300 83.033, 645 84.228, 645 85.322 C 645 87.239, 645.071 87.246, 646.976 85.521 C 648.063 84.538, 648.712 83.343, 648.417 82.866 C 647.779 81.833, 646.587 81.746, 645.667 82.667 M 832 85.409 C 832 86.919, 834.774 89.559, 835.548 88.786 C 836.365 87.968, 834.955 85.197, 833.423 84.609 C 832.627 84.303, 832 84.656, 832 85.409 M 680.200 86.200 C 678.804 87.596, 678.600 90, 679.878 90 C 680.360 90, 681.331 89.306, 682.035 88.458 C 683.659 86.501, 681.973 84.427, 680.200 86.200 M 892.242 90.697 C 893.726 92.180, 895.168 93.166, 895.447 92.887 C 896.363 91.971, 892.925 88, 891.216 88 C 889.909 88, 890.132 88.587, 892.242 90.697 M 949.154 89.315 C 947.004 91.905, 955.280 101.053, 957.639 98.695 C 958.775 97.559, 955.796 91.991, 952.980 89.986 C 950.766 88.410, 950.014 88.278, 949.154 89.315 M 848.601 89.837 C 847.970 90.857, 850.743 95, 852.057 95 C 853.404 95, 853.224 91.624, 851.800 90.200 C 850.393 88.793, 849.321 88.671, 848.601 89.837 M 927 89.992 C 927 91.549, 933.739 98.595, 934.500 97.833 C 934.863 97.470, 934.418 96.041, 933.510 94.656 C 931.609 91.755, 927 88.452, 927 89.992 M 712.583 92.643 C 712.237 93.547, 712.169 94.502, 712.433 94.767 C 713.363 95.697, 716 94.044, 716 92.531 C 716 90.484, 713.379 90.570, 712.583 92.643 M 866 94.345 C 866 95.695, 869.073 99, 870.329 99 C 871.585 99, 871.005 96.148, 869.429 94.571 C 867.502 92.645, 866 92.546, 866 94.345 M 923 93.601 C 923 94.897, 929.810 101.523, 930.467 100.867 C 930.740 100.594, 929.172 98.620, 926.982 96.482 C 924.792 94.344, 923 93.047, 923 93.601 M 1078.667 93.667 C 1077.616 94.718, 1077.890 102.814, 1079 103.500 C 1079.621 103.884, 1080 102.010, 1080 98.559 C 1080 92.939, 1079.870 92.463, 1078.667 93.667 M 965.667 94.667 C 965.300 95.033, 965 96.203, 965 97.267 C 965 99.626, 971.547 106.398, 972.975 105.516 C 974.976 104.279, 973.996 99.842, 971.077 96.923 C 968.123 93.969, 966.882 93.452, 965.667 94.667 M 921.584 97.093 C 922.625 98.244, 924.383 99.652, 925.489 100.222 C 926.925 100.963, 926.660 100.364, 924.563 98.130 C 921.339 94.695, 918.528 93.716, 921.584 97.093 M 1059.635 97.073 C 1056.078 99.870, 1056.151 104.018, 1059.830 108.135 C 1062.091 110.666, 1063.170 111.174, 1065.203 110.664 C 1070.507 109.333, 1071.158 100.843, 1066.253 96.984 C 1063.121 94.521, 1062.874 94.524, 1059.635 97.073 M 906.649 98.528 C 907.319 100.272, 911 102.525, 911 101.190 C 911 100.212, 907.706 97, 906.703 97 C 906.351 97, 906.327 97.688, 906.649 98.528 M 883 99.345 C 883 100.695, 886.073 104, 887.329 104 C 888.679 104, 887.950 101.265, 886.171 99.655 C 883.954 97.649, 883 97.556, 883 99.345 M 983.250 98.662 C 980.888 99.615, 981.845 104.998, 984.923 108.077 C 988.235 111.389, 989.236 111.626, 990.989 109.513 C 992.638 107.527, 991.519 103.428, 988.505 100.414 C 986.051 97.960, 985.470 97.766, 983.250 98.662 M 942 100.304 C 942 102.184, 948.594 108.302, 950.085 107.805 C 950.890 107.537, 949.978 105.875, 947.555 103.193 C 943.662 98.884, 942 98.019, 942 100.304 M 1038.395 101.520 C 1036.928 103.759, 1036.901 104.454, 1038.159 107.759 C 1040.804 114.709, 1048.200 114.769, 1048.799 107.845 C 1049.422 100.645, 1041.946 96.100, 1038.395 101.520 M 582.980 101.524 C 582.284 102.362, 581.985 103.318, 582.314 103.648 C 583.338 104.672, 586 103.143, 586 101.531 C 586 99.573, 584.602 99.569, 582.980 101.524 M 745.200 101.200 C 743.844 102.556, 743.586 105, 744.800 105 C 746.046 105, 748 102.741, 748 101.300 C 748 99.674, 746.770 99.630, 745.200 101.200 M 1000.667 100.667 C 999.244 102.089, 1000.102 107.859, 1002.116 110.420 C 1003.636 112.352, 1004.975 113.024, 1006.866 112.805 C 1009.120 112.544, 1009.545 111.960, 1009.810 108.764 C 1010.051 105.853, 1009.564 104.473, 1007.605 102.514 C 1005.189 100.098, 1002.067 99.267, 1000.667 100.667 M 1018.950 102.093 C 1017.542 104.724, 1018.518 108.825, 1021.248 111.750 C 1025.006 115.775, 1029 114.067, 1029 108.435 C 1029 101.846, 1021.586 97.167, 1018.950 102.093 M 899.910 106.832 C 900.450 107.840, 901.550 109.212, 902.356 109.881 C 904.736 111.856, 905.338 109.338, 903.036 107.036 C 900.435 104.435, 898.562 104.312, 899.910 106.832 M 939.001 108.002 C 941.178 111.059, 945 113.754, 945 112.231 C 945 111.192, 938.692 105, 937.634 105 C 937.211 105, 937.826 106.351, 939.001 108.002 M 615.954 108.086 C 615.340 109.233, 615.136 110.470, 615.501 110.834 C 616.179 111.512, 619 108.268, 619 106.809 C 619 105.220, 617.051 106.037, 615.954 108.086 M 921 106.639 C 921 107.925, 925.826 112.508, 926.486 111.848 C 926.757 111.576, 925.634 110.065, 923.990 108.490 C 922.345 106.915, 921 106.082, 921 106.639 M 957 108.965 C 957 110.556, 963.098 117, 964.604 117 C 966.866 117, 966.212 114.438, 963.099 111.106 C 960.308 108.118, 957 106.957, 957 108.965 M 650.160 111.240 C 648.746 112.654, 648.602 116.364, 649.995 115.503 C 651.600 114.511, 653.079 111.167, 652.163 110.601 C 651.699 110.314, 650.798 110.602, 650.160 111.240 M 916.220 114.981 C 917.398 116.867, 919.908 118.426, 920.620 117.713 C 921.343 116.990, 917.800 113, 916.435 113 C 915.238 113, 915.200 113.348, 916.220 114.981 M 774.667 114.667 C 774.300 115.033, 774 116.196, 774 117.250 C 774 119.843, 776.415 118.920, 776.820 116.172 C 777.129 114.069, 776.031 113.302, 774.667 114.667 M 683.494 117.020 C 682.670 119.617, 683.180 120.252, 685.406 119.398 C 687.252 118.689, 687.204 115.900, 685.335 115.278 C 684.694 115.064, 683.865 115.849, 683.494 117.020 M 873 115.772 C 873 117.207, 876.929 120.404, 877.721 119.613 C 878.110 119.223, 877.947 118.138, 877.357 117.202 C 876.186 115.342, 873 114.296, 873 115.772 M 952 116.069 C 952 117.998, 958.715 124.619, 959.686 123.647 C 960.080 123.254, 958.512 121.041, 956.201 118.730 C 953.572 116.102, 952 115.105, 952 116.069 M 973 116.810 C 973 118.949, 978.629 125, 980.619 125 C 983.003 125, 982.125 120.971, 979.077 117.923 C 975.773 114.620, 973 114.112, 973 116.810 M 937.490 119.990 C 939.065 121.634, 940.576 122.757, 940.848 122.486 C 941.508 121.826, 936.925 117, 935.639 117 C 935.082 117, 935.915 118.345, 937.490 119.990 M 891 120.345 C 891 121.085, 891.855 122.464, 892.901 123.410 C 895.216 125.505, 896.583 123.957, 895.011 121.021 C 893.796 118.750, 891 118.279, 891 120.345 M 948.318 120.250 C 949.043 122.299, 947.998 122.521, 945.965 120.750 C 945.176 120.063, 945.614 120.737, 946.939 122.250 C 949.753 125.461, 950.165 125.635, 949.308 123.250 C 948.832 121.923, 949.323 122.086, 951.336 123.921 C 955.444 127.664, 955.443 125.809, 951.335 121.932 C 949.174 119.892, 947.951 119.210, 948.318 120.250 M 989.396 121.410 C 988.674 123.292, 991.538 128.683, 993.945 129.970 C 999.706 133.054, 1000.822 128.622, 995.600 123.400 C 991.931 119.731, 990.248 119.191, 989.396 121.410 M 931 121.639 C 931 122.925, 935.826 127.508, 936.486 126.848 C 936.757 126.576, 935.634 125.065, 933.990 123.490 C 932.345 121.915, 931 121.082, 931 121.639 M 716.667 122.667 C 716.300 123.033, 716 124.116, 716 125.073 C 716 126.320, 716.566 126.665, 718 126.290 C 720.248 125.702, 720.224 125.748, 719.393 123.582 C 718.749 121.903, 717.762 121.572, 716.667 122.667 M 1064.035 123.934 C 1061.825 128.063, 1063.613 134.047, 1067.598 135.863 C 1073.738 138.660, 1077.584 130.555, 1072.927 124.635 C 1070.384 121.402, 1065.592 121.024, 1064.035 123.934 M 908 125.300 C 908 126.972, 910.028 129, 911.700 129 C 913.458 129, 913.338 127.481, 911.429 125.571 C 909.519 123.662, 908 123.542, 908 125.300 M 1007.001 125.499 C 1004.382 128.654, 1010.637 137.121, 1014.492 135.641 C 1017.026 134.669, 1016.300 129.662, 1013.195 126.687 C 1009.991 123.618, 1008.759 123.381, 1007.001 125.499 M 1044.655 125.829 C 1042.615 128.083, 1042.563 130.255, 1044.463 133.928 C 1047.996 140.761, 1056.324 138.464, 1054.511 131.157 C 1053.686 127.832, 1050.189 124, 1047.981 124 C 1047.062 124, 1045.565 124.823, 1044.655 125.829 M 966 125.497 C 966 126.427, 973.229 134, 974.116 134 C 975.783 134, 974.997 132.067, 971.896 128.535 C 969.248 125.518, 966 123.845, 966 125.497 M 1025.035 126.934 C 1023.442 129.911, 1023.773 131.577, 1026.634 134.977 C 1028.568 137.275, 1029.963 138.026, 1031.884 137.804 C 1034.089 137.548, 1034.547 136.942, 1034.799 133.948 C 1035.334 127.578, 1027.646 122.055, 1025.035 126.934 M 925 131.376 C 925 132.961, 928.775 136.558, 929.587 135.746 C 930.436 134.897, 928.294 131.327, 926.528 130.649 C 925.635 130.307, 925 130.609, 925 131.376 M 956.411 131.756 C 957.461 132.997, 958.557 133.777, 958.845 133.489 C 959.133 133.201, 960.973 134.435, 962.934 136.232 L 966.500 139.500 963.068 135.765 C 961.181 133.711, 959.417 132.249, 959.150 132.517 C 958.882 132.785, 957.726 132.216, 956.581 131.252 C 954.501 129.501, 954.501 129.501, 956.411 131.756 M 962 130.601 C 962 131.897, 968.810 138.523, 969.467 137.867 C 969.740 137.594, 968.172 135.620, 965.982 133.482 C 963.792 131.344, 962 130.047, 962 130.601 M 948.490 133.990 C 950.065 135.634, 951.576 136.757, 951.848 136.486 C 952.508 135.826, 947.925 131, 946.639 131 C 946.082 131, 946.915 132.345, 948.490 133.990 M 747.683 133.650 C 746.618 134.715, 746.881 138, 748.031 138 C 749.510 138, 750.441 135.041, 749.316 133.916 C 748.794 133.394, 748.059 133.274, 747.683 133.650 M 981.539 133.937 C 980.731 135.243, 988.635 143.344, 989.934 142.541 C 991.351 141.665, 988.729 136.624, 985.783 134.561 C 983.211 132.759, 982.346 132.632, 981.539 133.937 M 801.667 134.667 C 801.300 135.033, 801 136.196, 801 137.250 C 801 139.843, 803.415 138.920, 803.820 136.172 C 804.129 134.069, 803.031 133.302, 801.667 134.667 M 941 138.118 C 941 140.019, 944.733 143.601, 945.703 142.630 C 946.083 142.250, 945.180 140.726, 943.697 139.242 C 941.721 137.267, 941 136.966, 941 138.118 M 898.641 140.772 C 897.980 141.841, 900.698 146, 902.057 146 C 902.576 146, 903 145.395, 903 144.655 C 903 142.870, 899.353 139.620, 898.641 140.772 M 966.224 142.171 C 971.517 146.698, 975.538 149.508, 974.058 147.646 C 973.264 146.648, 970.564 144.483, 968.058 142.836 C 965.069 140.872, 964.438 140.643, 966.224 142.171 M 976 140.762 C 976 142.175, 983.921 149.413, 984.659 148.675 C 985.041 148.292, 984.037 146.595, 982.427 144.904 C 979.215 141.529, 976 139.457, 976 140.762 M 997.707 140.627 C 996.690 141.643, 999.691 146.567, 1002.414 148.352 C 1007.805 151.884, 1008.694 148.998, 1003.896 143.535 C 1000.924 140.150, 999.060 139.274, 997.707 140.627 M 916 145.800 C 916 147.906, 917.845 150, 919.700 150 C 921.588 150, 921.293 147.575, 919.171 145.655 C 916.819 143.527, 916 143.564, 916 145.800 M 975.932 147.360 C 977.819 149.345, 979.579 150.755, 979.842 150.491 C 980.502 149.831, 976.963 146.041, 974.511 144.782 C 973.272 144.145, 973.817 145.135, 975.932 147.360 M 1014.359 146.508 C 1013.221 149.472, 1020.462 157.068, 1022.956 155.527 C 1024.866 154.347, 1024.037 151.837, 1020.600 148.400 C 1016.887 144.687, 1015.248 144.190, 1014.359 146.508 M 958.242 148.697 C 959.726 150.180, 961.216 151.118, 961.553 150.780 C 962.351 149.982, 958.370 146, 956.773 146 C 956.098 146, 956.759 147.214, 958.242 148.697 M 1070.571 148.571 C 1067.058 152.085, 1070.502 161, 1075.373 161 C 1078.584 161, 1080 159.125, 1080 154.873 C 1080 152.037, 1079.370 150.649, 1077.365 149.073 C 1074.209 146.590, 1072.666 146.477, 1070.571 148.571 M 933 150.300 C 933 151.972, 935.028 154, 936.700 154 C 938.458 154, 938.338 152.481, 936.429 150.571 C 934.519 148.662, 933 148.542, 933 150.300 M 1031.368 150.485 C 1030.501 152.744, 1034.256 158.366, 1037.362 159.458 C 1042.332 161.206, 1043.168 156.119, 1038.711 151.250 C 1036.372 148.695, 1032.220 148.262, 1031.368 150.485 M 1050.499 150.644 C 1047.357 153.786, 1051.799 162, 1056.639 162 C 1061.351 162, 1061.960 155.892, 1057.711 151.250 C 1055.273 148.587, 1052.767 148.376, 1050.499 150.644 M 992.228 152.217 C 994.187 155.168, 998.791 158.542, 999.665 157.668 C 1000.590 156.743, 994.009 150, 992.182 150 C 990.961 150, 990.968 150.319, 992.228 152.217 M 775.667 151.667 C 774.449 152.885, 774.978 155, 776.500 155 C 777.333 155, 778 154.111, 778 153 C 778 151.008, 776.934 150.399, 775.667 151.667 M 987 154.601 C 987 155.897, 993.810 162.523, 994.467 161.867 C 994.740 161.594, 993.172 159.620, 990.982 157.482 C 988.792 155.344, 987 154.047, 987 154.601 M 950 155.845 C 950 156.813, 953.320 160, 954.329 160 C 955.520 160, 955.043 158.186, 953.429 156.571 C 951.720 154.863, 950 154.499, 950 155.845 M 972.146 155.937 C 972.401 156.702, 973.669 158.032, 974.964 158.892 C 976.835 160.135, 977.223 160.170, 976.854 159.063 C 976.599 158.298, 975.331 156.968, 974.036 156.108 C 972.165 154.865, 971.777 154.830, 972.146 155.937 M 827.667 157.667 C 826.309 159.024, 826.969 161.949, 828.500 161.362 C 829.325 161.045, 830 159.934, 830 158.893 C 830 156.993, 828.912 156.421, 827.667 157.667 M 1006.942 159.892 C 1008.392 162.601, 1014.002 167.117, 1015.085 166.448 C 1016.577 165.525, 1016.170 164.553, 1012.881 161.190 C 1009.345 157.573, 1005.218 156.671, 1006.942 159.892 M 966 161.965 C 966 163.307, 969.693 167, 971.035 167 C 971.741 167, 971.734 166.371, 971.012 165.023 C 969.757 162.677, 966 160.385, 966 161.965 M 1023 165.813 C 1023 168.066, 1028.015 173, 1030.305 173 C 1032.969 173, 1032.293 170.076, 1028.894 166.901 C 1025.355 163.595, 1023 163.161, 1023 165.813 M 1004.417 168.542 C 1009.516 173.045, 1011.376 173.015, 1007 168.500 C 1005.134 166.575, 1002.908 165.019, 1002.054 165.042 C 1001.079 165.068, 1001.959 166.372, 1004.417 168.542 M 924.214 168.195 C 925.970 170.841, 928 171.692, 928 169.783 C 928 167.990, 925.990 166, 924.178 166 C 922.960 166, 922.965 166.314, 924.214 168.195 M 941 170.800 C 941 172.906, 942.845 175, 944.700 175 C 946.588 175, 946.293 172.575, 944.171 170.655 C 941.819 168.527, 941 168.564, 941 170.800 M 982 169.810 C 982 171.090, 985.439 174, 986.951 174 C 988.008 174, 988.009 173.715, 986.955 172.445 C 985.275 170.422, 982 168.680, 982 169.810 M 1039.438 170.100 C 1038.549 171.538, 1041.973 176.096, 1045.372 178 C 1047.701 179.305, 1048.168 179.312, 1048.955 178.054 C 1050.050 176.306, 1048.634 173.203, 1045.633 170.772 C 1043.190 168.793, 1040.431 168.494, 1039.438 170.100 M 802.667 171.667 C 801.290 173.043, 802.073 175, 804 175 C 806.202 175, 806.273 174.876, 805.393 172.582 C 804.749 170.903, 803.762 170.572, 802.667 171.667 M 1057.667 172.667 C 1055.112 175.221, 1060.042 182, 1064.455 182 C 1068.111 182, 1068.257 178.041, 1064.739 174.250 C 1062.735 172.091, 1059.065 171.269, 1057.667 172.667 M 1076.200 173.200 C 1074.337 175.063, 1074.771 177.628, 1077.468 180.694 L 1079.937 183.500 1079.968 177.750 C 1080.001 171.888, 1078.873 170.527, 1076.200 173.200 M 958.411 174.145 C 958.051 174.726, 958.667 176.111, 959.778 177.222 C 962.188 179.632, 964.501 178.804, 963.030 176.057 C 961.816 173.788, 959.280 172.738, 958.411 174.145 M 1017 174.392 C 1017 176.210, 1024.008 182.113, 1025.253 181.344 C 1026.236 180.736, 1021.616 175.433, 1018.750 173.879 C 1017.448 173.173, 1017 173.304, 1017 174.392 M 1003.934 177.268 C 1005.340 178.857, 1006.636 179.589, 1007.001 178.999 C 1007.358 178.420, 1010.210 180.283, 1013.566 183.286 C 1020.856 189.809, 1033.857 198.648, 1030 194.458 C 1028.625 192.964, 1026.150 191.166, 1024.500 190.462 C 1022.850 189.757, 1018.406 186.449, 1014.623 183.110 C 1010.841 179.771, 1007.325 177.299, 1006.810 177.617 C 1006.295 177.935, 1004.890 177.368, 1003.687 176.355 C 1001.869 174.825, 1001.911 174.979, 1003.934 177.268 M 975.569 178.888 C 974.880 180.004, 978.344 184, 980 184 C 981.674 184, 981.126 182.467, 978.605 180.099 C 977.137 178.720, 975.963 178.251, 975.569 178.888 M 998 178.885 C 998 179.372, 999.125 180.507, 1000.500 181.408 C 1003.397 183.306, 1003.862 182.090, 1001.171 179.655 C 999.143 177.819, 998 177.542, 998 178.885 M 1015.500 181.523 C 1017.700 183.419, 1019.950 184.958, 1020.500 184.943 C 1021.050 184.929, 1019.738 183.360, 1017.583 181.458 C 1015.429 179.556, 1013.179 178.017, 1012.583 178.038 C 1011.988 178.058, 1013.300 179.627, 1015.500 181.523 M 853.047 181.911 C 852.349 183.217, 852.332 184.087, 852.997 184.498 C 854.335 185.325, 856 184.218, 856 182.500 C 856 180.188, 854.166 179.822, 853.047 181.911 M 1032 181.896 C 1032 183.274, 1038.880 189, 1040.535 189 C 1042.907 189, 1042.237 187.415, 1038.465 184.104 C 1035.042 181.098, 1032 180.059, 1032 181.896 M 932 184.845 C 932 186.185, 935.591 189.076, 936.333 188.333 C 936.702 187.964, 936.259 186.838, 935.347 185.831 C 933.598 183.899, 932 183.428, 932 184.845 M 992 185.845 C 992 186.813, 995.320 190, 996.329 190 C 997.825 190, 996.869 187, 995.066 186.035 C 992.719 184.779, 992 184.734, 992 185.845 M 1027 187.913 C 1027 189.158, 1035.215 195.120, 1035.930 194.394 C 1036.527 193.786, 1029.051 187.041, 1027.750 187.015 C 1027.338 187.007, 1027 187.411, 1027 187.913 M 1048.552 187.916 C 1047.811 189.115, 1053.307 194.585, 1055.945 195.275 C 1059.272 196.145, 1059.262 194.368, 1055.918 190.560 C 1052.911 187.135, 1049.738 185.996, 1048.552 187.916 M 949 191.265 C 949 192.735, 950.941 195, 952.200 195 C 953.824 195, 952.935 192.036, 951 191 C 949.464 190.178, 949 190.240, 949 191.265 M 1065.484 192.025 C 1064.580 193.489, 1071.620 200.220, 1073.645 199.828 C 1076.488 199.276, 1076.311 197.157, 1073.159 194.005 C 1070.150 190.996, 1066.674 190.100, 1065.484 192.025 M 829.012 193.978 C 827.497 196.808, 828.559 197.870, 830.731 195.698 C 831.968 194.460, 832.119 193.719, 831.300 192.900 C 830.480 192.080, 829.874 192.366, 829.012 193.978 M 1010.242 194.697 C 1011.726 196.180, 1013.291 197.042, 1013.720 196.611 C 1014.574 195.753, 1010.457 192, 1008.662 192 C 1008.048 192, 1008.759 193.214, 1010.242 194.697 M 966.159 195.552 C 966.570 197.640, 969.600 199.734, 970.667 198.667 C 971.734 197.600, 969.640 194.570, 967.552 194.159 C 966.355 193.924, 965.924 194.355, 966.159 195.552 M 1043 196.381 C 1043 198.072, 1048.955 203, 1050.999 203 C 1052.595 203, 1049.797 199.709, 1045.750 196.824 C 1043.486 195.210, 1043 195.132, 1043 196.381 M 1029.942 198.375 C 1031.286 199.840, 1032.861 200.862, 1033.442 200.647 C 1034.024 200.431, 1036.075 201.388, 1038 202.773 L 1041.500 205.290 1038.913 202.580 C 1037.490 201.090, 1035.645 199.771, 1034.813 199.649 C 1033.981 199.527, 1031.995 198.591, 1030.400 197.569 L 1027.500 195.712 1029.942 198.375 M 984 198.300 C 984 199.972, 986.028 202, 987.700 202 C 989.692 202, 989.244 199.201, 987.066 198.035 C 984.539 196.683, 984 196.729, 984 198.300 M 1024 199.909 C 1024 201.168, 1028.842 204.491, 1029.589 203.745 C 1029.878 203.455, 1028.739 202.238, 1027.058 201.041 C 1025.376 199.844, 1024 199.334, 1024 199.909 M 1042.500 203.582 C 1044.700 205.628, 1045.713 207.023, 1044.750 206.682 C 1041.509 205.535, 1042.964 206.933, 1049.739 211.479 C 1053.446 213.966, 1056.091 216, 1055.617 216 C 1054.305 216, 1057.060 218.977, 1059.418 220.107 C 1060.791 220.766, 1060.478 220.197, 1058.500 218.439 C 1056.784 216.914, 1056.249 216.022, 1057.250 216.355 C 1060.284 217.365, 1059.193 216.360, 1052.561 212.040 C 1048.975 209.704, 1046.329 207.307, 1046.588 206.631 C 1046.845 205.963, 1045.805 204.506, 1044.277 203.394 C 1039.234 199.721, 1038.439 199.806, 1042.500 203.582 M 1001.510 201.984 C 1000.759 203.200, 1004.780 207.254, 1005.993 206.504 C 1007.270 205.715, 1006.334 203.690, 1004.027 202.249 C 1002.867 201.525, 1001.859 201.418, 1001.510 201.984 M 1058.535 202.943 C 1057.855 204.044, 1064.606 210, 1066.535 210 C 1068.728 210, 1068.316 208.666, 1065.250 205.834 C 1062.082 202.907, 1059.298 201.708, 1058.535 202.943 M 1018 207.977 C 1018 209.287, 1022.895 212.438, 1023.692 211.642 C 1024.553 210.781, 1021.012 207, 1019.345 207 C 1018.605 207, 1018 207.440, 1018 207.977 M 1075.378 208.198 C 1075.034 208.753, 1075.934 210.388, 1077.377 211.831 L 1080 214.455 1080 211.344 C 1080 209.075, 1079.459 208.092, 1078.001 207.711 C 1076.902 207.423, 1075.721 207.642, 1075.378 208.198 M 958.750 211.194 C 959.957 212.401, 961.246 213.087, 961.615 212.719 C 962.588 211.746, 960.033 209, 958.155 209 C 956.870 209, 956.986 209.431, 958.750 211.194 M 1056.962 212.041 C 1058.866 213.668, 1061.066 215, 1061.850 215 C 1062.634 215, 1061.576 213.650, 1059.500 212 C 1054.619 208.121, 1052.418 208.157, 1056.962 212.041 M 1036.306 215.532 C 1039.967 218.753, 1042.033 218.729, 1039 215.500 C 1037.708 214.125, 1035.942 213.014, 1035.076 213.032 C 1033.960 213.054, 1034.319 213.783, 1036.306 215.532 M 974 214.845 C 974 215.813, 977.320 219, 978.329 219 C 979.520 219, 979.043 217.186, 977.429 215.571 C 975.720 213.863, 974 213.499, 974 214.845 M 1072.417 219.542 C 1076.846 223.453, 1080.657 224.488, 1077.407 220.898 C 1075.493 218.783, 1070.787 215.964, 1069.300 216.042 C 1068.860 216.065, 1070.262 217.640, 1072.417 219.542 M 992 218.965 C 992 221.612, 995.789 223.713, 996.627 221.530 C 997.322 219.717, 995.374 217, 993.378 217 C 992.620 217, 992 217.884, 992 218.965 M 1063.344 220.700 C 1064.358 221.891, 1065.771 222.641, 1066.483 222.368 C 1067.196 222.095, 1069.291 223.406, 1071.139 225.283 C 1072.988 227.159, 1075.850 229.543, 1077.500 230.581 C 1079.888 232.083, 1079.582 231.539, 1076 227.914 C 1070.861 222.714, 1066.228 219.438, 1065.311 220.356 C 1064.966 220.701, 1063.968 220.432, 1063.092 219.759 C 1062.033 218.945, 1062.118 219.260, 1063.344 220.700 M 1010 220.929 C 1010 222.131, 1012.869 225, 1014.071 225 C 1015.392 225, 1015.222 222.622, 1013.800 221.200 C 1012.378 219.778, 1010 219.608, 1010 220.929 M 1053.365 222.583 C 1054.941 223.969, 1056.516 224.816, 1056.865 224.465 C 1057.629 223.698, 1053.254 219.987, 1051.639 220.032 C 1051.013 220.049, 1051.789 221.197, 1053.365 222.583 M 1028.177 224.643 C 1028.563 226.607, 1031.611 228.722, 1032.613 227.721 C 1033.404 226.929, 1030.207 223, 1028.772 223 C 1028.267 223, 1027.999 223.739, 1028.177 224.643 M 1045 228.265 C 1045 230.191, 1047.094 232, 1049.322 232 C 1050.948 232, 1051.046 231.760, 1049.955 230.445 C 1047.888 227.955, 1045 226.684, 1045 228.265 M 983 232.845 C 983 233.310, 983.900 234.505, 985 235.500 C 986.588 236.937, 987 237.010, 987 235.855 C 987 234.286, 985.102 232, 983.800 232 C 983.360 232, 983 232.380, 983 232.845 M 1062 233.640 C 1062 234.654, 1065.359 236.933, 1066.905 236.968 C 1067.971 236.992, 1067.873 236.517, 1066.500 235 C 1064.784 233.104, 1062 232.262, 1062 233.640 M 1000 237.772 C 1000 239.207, 1003.929 242.404, 1004.721 241.613 C 1005.110 241.223, 1004.947 240.138, 1004.357 239.202 C 1003.186 237.342, 1000 236.296, 1000 237.772 M 1018.306 240.645 C 1017.714 242.189, 1020.221 245, 1022.191 245 C 1023.432 245, 1023.151 241.551, 1021.800 240.200 C 1020.155 238.555, 1019.054 238.696, 1018.306 240.645 M 1036.664 241.669 C 1035.775 242.558, 1038.946 246, 1040.655 246 C 1042.324 246, 1042.408 243.808, 1040.800 242.200 C 1039.471 240.871, 1037.691 240.643, 1036.664 241.669 M 1054.664 243.669 C 1053.775 244.558, 1056.946 248, 1058.655 248 C 1060.683 248, 1060.269 245.214, 1058.066 244.035 C 1055.787 242.815, 1055.544 242.789, 1054.664 243.669 M 1073.500 249 C 1075.307 250.996, 1078 251.715, 1078 250.200 C 1078 248.742, 1075.629 247, 1073.645 247 C 1071.753 247, 1071.749 247.065, 1073.500 249 M 1009 255.800 C 1009 257.102, 1011.286 259, 1012.855 259 C 1014.010 259, 1013.937 258.588, 1012.500 257 C 1010.641 254.946, 1009 254.383, 1009 255.800 M 1026 259.800 C 1026 261.224, 1028.351 263, 1030.235 263 C 1031.760 263, 1031.890 262.662, 1031 261 C 1029.976 259.087, 1026 258.133, 1026 259.800 M 1045.180 262.250 C 1045.386 263.696, 1046.304 264.614, 1047.750 264.820 C 1050.223 265.171, 1050.796 263.196, 1048.800 261.200 C 1046.804 259.204, 1044.829 259.777, 1045.180 262.250 M 1064.323 261.601 C 1063.635 263.394, 1066.612 266.358, 1068.147 265.409 C 1069.672 264.467, 1069.048 262.096, 1066.985 260.992 C 1065.371 260.128, 1064.842 260.249, 1064.323 261.601 M 1036.500 279 C 1037.495 280.100, 1038.690 281, 1039.155 281 C 1040.653 281, 1040.052 278.234, 1038.418 277.607 C 1035.435 276.462, 1034.692 277.002, 1036.500 279 M 1053.221 280.164 C 1053.435 280.805, 1054.555 281.956, 1055.710 282.723 C 1058.327 284.461, 1059.663 282.805, 1057.438 280.581 C 1055.603 278.746, 1052.651 278.454, 1053.221 280.164 M 1072.473 280.044 C 1071.569 281.506, 1073.870 284, 1076.122 284 C 1078.412 284, 1078.530 282.673, 1076.429 280.571 C 1074.600 278.743, 1073.378 278.580, 1072.473 280.044 M 1062.675 296.658 C 1061.774 297.559, 1063.926 300, 1065.622 300 C 1067.319 300, 1067.396 298.796, 1065.800 297.200 C 1064.444 295.844, 1063.631 295.703, 1062.675 296.658" stroke="none" fill="#a9a9ac" fill-rule="evenodd"/><path d="M 0 539.995 L 0 1080.002 540.250 1079.751 L 1080.500 1079.500 1080.751 539.750 L 1081.002 -0 1074.123 -0 C 1069.229 -0, 1066.886 0.433, 1066 1.500 C 1064.416 3.409, 1060.942 3.424, 1058.441 1.532 C 1057.374 0.724, 1054.588 0.049, 1052.250 0.032 C 1048.758 0.006, 1048 0.333, 1048 1.865 C 1048 4.842, 1044.143 9, 1041.382 9 C 1038.387 9, 1034 4.867, 1034 2.045 C 1034 0.261, 1033.370 0, 1029.059 0 L 1024.119 0 1025.553 2.750 C 1027.393 6.277, 1027.369 8.028, 1025.443 10.777 C 1021.226 16.798, 1010.469 8.597, 1013.980 2.038 C 1015.068 0.005, 1014.981 0, 979.446 0 L 943.822 0 946.342 2.995 C 949.591 6.855, 950.470 9.729, 948.960 11.548 C 945.079 16.224, 936.130 7.092, 939.207 1.595 C 939.976 0.220, 939.343 0, 934.626 0 L 929.153 0 930.669 3.038 C 931.503 4.709, 931.928 6.744, 931.615 7.561 C 929.982 11.817, 923.971 9.328, 921.873 3.525 C 920.772 0.481, 920.157 -0, 917.366 -0 C 914.585 -0, 914.089 0.383, 913.816 2.741 C 913.368 6.630, 910.524 6.772, 907.073 3.078 C 904.813 0.659, 903.363 -0, 900.299 -0 C 898.154 -0, 895.908 0.492, 895.307 1.093 C 894.517 1.883, 893.650 1.883, 892.173 1.093 C 890.982 0.455, 884.427 -0, 876.431 -0 L 862.730 -0 865.440 2.131 C 868.658 4.662, 870.532 8.868, 869.087 10.313 C 867.732 11.668, 861 4.832, 861 2.100 C 861 0.376, 860.388 0, 857.583 0 C 855.704 0, 853.963 0.563, 853.714 1.250 C 853.352 2.250, 852.838 2.250, 851.144 1.250 C 849.980 0.563, 847.280 0, 845.145 0 L 841.264 0 844.632 3.571 C 846.484 5.535, 848 7.560, 848 8.071 C 848 10.097, 845.920 8.786, 842.338 4.500 L 838.576 0 824.320 0 C 811.165 0, 810.112 0.135, 810.701 1.750 C 811.309 3.417, 811.244 3.417, 809.341 1.750 C 806.575 -0.672, 786.717 -0.901, 787.638 1.500 C 788.397 3.478, 785.641 3.478, 784 1.500 C 782.900 0.175, 757.451 0, 566 0 C 374.549 0, 349.100 0.175, 348 1.500 C 346.410 3.416, 345 3.423, 345 1.515 C 345 0.206, 324.407 0.027, 172.500 0.009 L 0 -0.012 0 539.995 M 0.496 540.500 C 0.496 837.500, 0.610 958.851, 0.750 810.168 C 0.890 661.485, 0.890 418.485, 0.750 270.168 C 0.610 121.851, 0.496 243.500, 0.496 540.500 M 995.750 2.080 C 992.842 3.774, 993.465 9.619, 996.923 13.077 C 1000.172 16.326, 1001.731 16.649, 1004.476 14.642 C 1007.544 12.398, 1006.906 7.199, 1003.151 3.844 C 999.730 0.787, 998.481 0.489, 995.750 2.080 M 414.980 3.524 C 414.284 4.362, 413.985 5.318, 414.314 5.648 C 415.338 6.672, 418 5.143, 418 3.531 C 418 1.573, 416.602 1.569, 414.980 3.524 M 957.200 3.200 C 955.489 4.911, 955.715 7.020, 958.010 10.785 C 961.267 16.127, 966.447 17.053, 967.590 12.497 C 969.065 6.622, 960.997 -0.597, 957.200 3.200 M 976.750 3.080 C 972.226 5.715, 976.607 16, 982.255 16 C 988.642 16, 988.349 6.783, 981.855 3.425 C 978.637 1.761, 978.976 1.784, 976.750 3.080 M 647.750 5.116 C 645.781 6.223, 645.440 8.536, 647.096 9.559 C 648.675 10.535, 650.899 7.803, 650.142 5.816 C 649.656 4.541, 649.075 4.371, 647.750 5.116 M 838.482 7.982 C 840.620 10.172, 842.594 11.740, 842.867 11.467 C 843.523 10.810, 836.897 4, 835.601 4 C 835.047 4, 836.344 5.792, 838.482 7.982 M 592.011 6.487 C 591.332 7.305, 591.045 8.675, 591.373 9.530 C 591.844 10.757, 592.397 10.858, 593.985 10.008 C 596.234 8.804, 596.240 8.790, 595.393 6.582 C 594.634 4.603, 593.598 4.574, 592.011 6.487 M 799.649 6.528 C 800.327 8.294, 803.897 10.436, 804.746 9.587 C 805.558 8.775, 801.961 5, 800.376 5 C 799.609 5, 799.307 5.635, 799.649 6.528 M 833 5.626 C 833 6.176, 834.350 7.919, 836 9.500 C 837.650 11.081, 839 11.924, 839 11.374 C 839 10.824, 837.650 9.081, 836 7.500 C 834.350 5.919, 833 5.076, 833 5.626 M 448.278 7.122 C 446.600 8.800, 447.840 11.378, 449.617 9.903 C 451.109 8.664, 451.507 6, 450.200 6 C 449.760 6, 448.895 6.505, 448.278 7.122 M 537.667 6.667 C 536.690 7.644, 536.853 11, 537.878 11 C 538.360 11, 539.299 10.345, 539.964 9.544 C 541.740 7.403, 539.605 4.729, 537.667 6.667 M 877 9.394 C 877 12.151, 882.031 18, 884.401 18 C 886.409 18, 886.442 15.755, 884.490 11.980 C 881.936 7.042, 877 5.337, 877 9.394 M 719 9.893 C 719 12.001, 721.590 13.473, 722.554 11.913 C 723.227 10.824, 721.295 8, 719.878 8 C 719.395 8, 719 8.852, 719 9.893 M 738 10.531 C 738 12.044, 740.637 13.697, 741.567 12.767 C 741.831 12.502, 741.763 11.547, 741.417 10.643 C 740.621 8.570, 738 8.484, 738 10.531 M 854 10.929 C 854 12.289, 860.542 19, 861.868 19 C 863.829 19, 863.113 17.262, 859.632 13.571 C 856.378 10.121, 854 9.005, 854 10.929 M 698.446 12.087 C 697.474 13.660, 699.575 15.377, 701.545 14.621 C 702.909 14.098, 702.993 13.697, 701.990 12.488 C 700.527 10.725, 699.369 10.594, 698.446 12.087 M 756 12.294 C 756 14.085, 758.787 16.546, 759.739 15.595 C 760.573 14.760, 758.823 11.774, 757.179 11.226 C 756.530 11.010, 756 11.491, 756 12.294 M 1063.452 13.646 C 1060.161 17.197, 1060.162 22.253, 1063.455 25.545 C 1066.453 28.544, 1068.905 28.649, 1072.365 25.927 C 1077.707 21.725, 1074.670 11, 1068.138 11 C 1066.909 11, 1064.801 12.191, 1063.452 13.646 M 480.688 12.646 C 479.272 14.061, 480.073 16, 482.073 16 C 483.471 16, 484.041 15.457, 483.823 14.333 C 483.466 12.492, 481.759 11.574, 480.688 12.646 M 815 12.791 C 815 14.140, 819.917 18.417, 820.639 17.695 C 820.994 17.339, 820.695 16.338, 819.975 15.470 C 818.293 13.443, 815 11.670, 815 12.791 M 893.355 13.518 C 891.840 17.465, 898.834 26.213, 901.641 23.883 C 903.809 22.084, 903.235 19.337, 899.896 15.535 C 896.583 11.761, 894.299 11.057, 893.355 13.518 M 774 14.878 C 774 17.282, 776.744 19.656, 778.033 18.367 C 778.631 17.769, 778.409 16.602, 777.434 15.209 C 775.540 12.506, 774 12.357, 774 14.878 M 851.502 18.413 C 854.019 21.714, 857 23.748, 857 22.165 C 857 21.183, 850.658 15, 849.652 15 C 849.237 15, 850.070 16.536, 851.502 18.413 M 911.034 17.459 C 909.190 19.681, 910.733 24.598, 914.185 27.503 C 916.561 29.501, 917.527 29.808, 918.612 28.907 C 920.938 26.977, 920.242 22.471, 917.099 19.106 C 913.851 15.629, 912.791 15.342, 911.034 17.459 M 622.571 18.571 C 620.685 20.458, 621.354 22, 624.059 22 C 625.314 22, 626 21.314, 626 20.059 C 626 17.354, 624.458 16.685, 622.571 18.571 M 791.461 18.063 C 790.783 19.160, 793.656 23, 795.155 23 C 796.425 23, 796.171 19.571, 794.800 18.200 C 793.319 16.719, 792.317 16.678, 791.461 18.063 M 847.826 19.314 C 851.190 22.895, 850.392 23.728, 846.750 20.437 L 843.500 17.500 846.232 20.536 C 847.734 22.206, 849.938 23.645, 851.129 23.735 C 853.084 23.882, 852.970 23.564, 849.950 20.449 C 848.112 18.552, 846.393 17, 846.130 17 C 845.867 17, 846.630 18.042, 847.826 19.314 M 676.480 19.032 C 676.092 19.660, 676.245 20.645, 676.820 21.220 C 678.164 22.564, 681.297 21.392, 680.750 19.749 C 680.194 18.078, 677.364 17.602, 676.480 19.032 M 1041.557 20.223 C 1038.617 24.419, 1040.285 30.477, 1045.089 33.048 C 1051.557 36.509, 1056.596 25.663, 1051.267 19.750 C 1048.968 17.199, 1043.488 17.465, 1041.557 20.223 M 869 19.997 C 869 21.284, 875.956 29, 877.116 29 C 878.942 29, 877.894 25.949, 874.896 22.535 C 871.924 19.149, 869 17.891, 869 19.997 M 567.200 21.200 C 566.540 21.860, 566 22.985, 566 23.700 C 566 25.536, 568.939 25.321, 569.664 23.433 C 570.491 21.279, 568.723 19.677, 567.200 21.200 M 928.667 20.667 C 928.300 21.033, 928 22.768, 928 24.521 C 928 30.203, 935.933 35.945, 937.639 31.498 C 939.413 26.876, 931.730 17.603, 928.667 20.667 M 831 21.734 C 831 23.174, 835.143 27.190, 835.874 26.459 C 836.160 26.173, 835.180 24.726, 833.697 23.242 C 832.214 21.759, 831 21.080, 831 21.734 M 511.755 24.500 C 511.234 27.226, 511.931 27.669, 513.800 25.800 C 515.423 24.177, 515.318 22, 513.617 22 C 512.856 22, 512.018 23.125, 511.755 24.500 M 1021.655 23.829 C 1019.417 26.301, 1019.568 31.181, 1021.976 34.242 C 1024.795 37.827, 1027.586 38.260, 1030.685 35.594 C 1032.926 33.667, 1033.194 32.847, 1032.607 29.721 C 1031.892 25.909, 1028.050 22, 1025.020 22 C 1024.080 22, 1022.565 22.823, 1021.655 23.829 M 808 23.772 C 808 25.207, 811.929 28.404, 812.721 27.613 C 813.110 27.223, 812.947 26.138, 812.357 25.202 C 811.186 23.342, 808 22.296, 808 23.772 M 946.200 24.200 C 944.533 25.867, 944.702 28.687, 946.669 32.017 C 951.587 40.342, 958.924 36.554, 954.490 27.980 C 952.230 23.611, 948.493 21.907, 946.200 24.200 M 963.958 26.550 C 960.709 30.466, 967.656 40.957, 971.786 38.371 C 972.729 37.781, 973.641 35.876, 973.814 34.137 C 974.055 31.712, 973.432 30.279, 971.141 27.987 C 967.800 24.647, 965.860 24.258, 963.958 26.550 M 1001.655 26.829 C 999.592 29.108, 999.564 31.257, 1001.548 35.093 C 1003.158 38.207, 1006.985 40.327, 1009.356 39.417 C 1011.763 38.493, 1013.070 34.314, 1011.907 31.256 C 1009.590 25.160, 1004.970 23.166, 1001.655 26.829 M 864 26.894 C 864 28.310, 870.923 35.411, 871.622 34.711 C 871.950 34.383, 871.238 32.738, 870.040 31.056 C 867.722 27.800, 864 25.236, 864 26.894 M 981.773 28.598 C 979.328 33.965, 987.248 42.529, 991.440 39.050 C 993.792 37.097, 993.322 32.536, 990.411 29.077 C 987.122 25.168, 983.429 24.963, 981.773 28.598 M 727.570 27.887 C 726.801 29.130, 729.678 31.317, 731.005 30.497 C 731.785 30.015, 731.763 29.419, 730.926 28.411 C 729.585 26.795, 728.363 26.604, 727.570 27.887 M 885 29.100 C 885 31.910, 891.732 38.668, 893.135 37.265 C 894.470 35.930, 891.864 30.719, 888.783 28.561 C 885.809 26.477, 885 26.593, 885 29.100 M 653.380 29.452 C 653.074 30.251, 653.128 31.398, 653.500 32.001 C 654.355 33.383, 657 31.401, 657 29.378 C 657 27.546, 654.088 27.606, 653.380 29.452 M 825 30.118 C 825 32.019, 828.733 35.601, 829.703 34.630 C 830.083 34.250, 829.180 32.726, 827.697 31.242 C 825.721 29.267, 825 28.966, 825 30.118 M 860 29.608 C 860 30.158, 861.575 32.134, 863.500 34 C 865.425 35.866, 867 36.942, 867 36.392 C 867 35.842, 865.425 33.866, 863.500 32 C 861.575 30.134, 860 29.058, 860 29.608 M 707.473 31.044 C 707.148 31.570, 707.160 32.450, 707.500 33 C 708.424 34.495, 711 34.206, 711 32.607 C 711 30.911, 708.296 29.713, 707.473 31.044 M 764 31.878 C 764 33.039, 766.909 35.424, 767.548 34.786 C 768.453 33.880, 766.814 31, 765.393 31 C 764.627 31, 764 31.395, 764 31.878 M 597.667 32.667 C 597.300 33.033, 597 34.453, 597 35.822 C 597 38.218, 597.072 38.245, 598.933 36.561 C 599.995 35.599, 600.622 34.179, 600.326 33.406 C 599.743 31.887, 598.728 31.605, 597.667 32.667 M 901 36.423 C 901 39.482, 905.560 45, 908.089 45 C 910.390 45, 910.487 43.842, 908.506 40.011 C 907.081 37.256, 903.436 34, 901.777 34 C 901.350 34, 901 35.090, 901 36.423 M 541.667 35.667 C 540.690 36.644, 540.853 40, 541.878 40 C 542.360 40, 543.299 39.345, 543.964 38.544 C 545.740 36.403, 543.605 33.729, 541.667 35.667 M 781 35.845 C 781 37.147, 784.581 40.086, 785.296 39.371 C 786.287 38.380, 784.097 35, 782.465 35 C 781.659 35, 781 35.380, 781 35.845 M 878.723 36.639 C 878.007 37.797, 882.403 43.610, 885.077 45.041 C 888.264 46.747, 887.376 44.326, 883.157 39.803 C 881.043 37.537, 879.048 36.113, 878.723 36.639 M 840 37.826 C 840 39.180, 844.936 43.397, 845.667 42.667 C 846.038 42.296, 845.286 40.869, 843.996 39.496 C 841.635 36.982, 840 36.299, 840 37.826 M 1069.174 39.314 C 1066.106 42.580, 1066.238 48.329, 1069.455 51.545 C 1072.526 54.616, 1075.033 54.658, 1077.826 51.686 C 1080.666 48.662, 1080.867 41.094, 1078.171 38.655 C 1075.589 36.318, 1071.723 36.602, 1069.174 39.314 M 685 39.427 C 685 40.354, 685.855 41, 687.083 41 C 689.520 41, 689.176 38.663, 686.667 38.177 C 685.680 37.985, 685 38.495, 685 39.427 M 799 39.878 C 799 42.520, 801.737 44.663, 803.219 43.181 C 804.064 42.336, 803.887 41.532, 802.521 40.024 C 800.234 37.496, 799 37.444, 799 39.878 M 917.312 41.631 C 916.453 43.869, 919.931 50.011, 922.796 51.317 C 927.533 53.475, 927.508 47.320, 922.759 42.250 C 920.274 39.597, 918.183 39.359, 917.312 41.631 M 629.562 42.581 C 628.693 43.450, 628.225 44.555, 628.523 45.037 C 629.427 46.500, 632 44.913, 632 42.893 C 632 40.589, 631.605 40.538, 629.562 42.581 M 874 41.594 C 874 42.144, 875.800 44.352, 878 46.500 C 880.200 48.648, 882 49.956, 882 49.406 C 882 48.856, 880.200 46.648, 878 44.500 C 875.800 42.352, 874 41.044, 874 41.594 M 816.601 42.837 C 815.970 43.857, 818.743 48, 820.057 48 C 821.404 48, 821.224 44.624, 819.800 43.200 C 818.393 41.793, 817.321 41.671, 816.601 42.837 M 1048 45 C 1043.545 49.455, 1047.225 59, 1053.398 59 C 1058.897 59, 1061.008 49.917, 1056.545 45.455 C 1053.570 42.479, 1050.675 42.325, 1048 45 M 934.667 44.667 C 933.156 46.177, 934.167 51.045, 936.589 53.923 C 939.356 57.212, 942.695 57.957, 943.639 55.498 C 945.504 50.639, 937.888 41.446, 934.667 44.667 M 893 46.656 C 893 47.922, 898.102 53.984, 900.041 55.022 C 903.150 56.686, 902.519 53.661, 898.896 49.535 C 896.137 46.392, 893 44.860, 893 46.656 M 951.881 49.361 C 949.781 53.970, 957.016 62.892, 960.505 59.996 C 964.284 56.860, 959.383 47, 954.044 47 C 953.446 47, 952.473 48.063, 951.881 49.361 M 1027.655 48.829 C 1024.406 52.419, 1026.248 59.457, 1031.118 62.063 C 1034.562 63.906, 1038 60.843, 1038 55.931 C 1038 49.010, 1031.518 44.560, 1027.655 48.829 M 572.036 49.456 C 570.389 51.441, 571.687 53.505, 573.589 51.926 C 575.147 50.633, 575.504 48, 574.122 48 C 573.640 48, 572.701 48.655, 572.036 49.456 M 833 48.772 C 833 50.207, 836.929 53.404, 837.721 52.613 C 838.110 52.223, 837.947 51.138, 837.357 50.202 C 836.186 48.342, 833 47.296, 833 48.772 M 463.160 50.240 C 461.531 51.869, 461.713 54.048, 463.423 53.391 C 465.133 52.735, 466.230 50.260, 465.116 49.572 C 464.678 49.301, 463.798 49.602, 463.160 50.240 M 661.446 50.087 C 661.077 50.685, 661.166 51.566, 661.645 52.045 C 662.828 53.228, 665.431 51.507, 664.569 50.112 C 663.696 48.698, 662.311 48.687, 661.446 50.087 M 969.806 51.526 C 967.450 56.698, 974.539 65.288, 978.470 62.025 C 980.995 59.930, 980.340 55.186, 977.077 51.923 C 973.488 48.334, 971.315 48.215, 969.806 51.526 M 1008 51 C 1005.402 53.598, 1005.475 55.923, 1008.284 60.102 C 1012.224 65.962, 1018 64.892, 1018 58.301 C 1018 55.816, 1017.179 54.026, 1015.077 51.923 C 1011.620 48.466, 1010.659 48.341, 1008 51 M 989.200 51.200 C 987.326 53.074, 987.789 58.462, 990.073 61.365 C 992.371 64.287, 996.072 64.823, 997.991 62.511 C 999.854 60.265, 998.372 54.438, 995.328 52.043 C 992.350 49.701, 990.899 49.501, 989.200 51.200 M 888 52.758 C 888 54.086, 894.968 61.365, 895.618 60.715 C 895.936 60.397, 895.390 59.068, 894.405 57.762 C 892.235 54.885, 888 51.576, 888 52.758 M 850 55.118 C 850 57.019, 853.733 60.601, 854.703 59.630 C 855.083 59.250, 854.180 57.726, 852.697 56.242 C 850.721 54.267, 850 53.966, 850 55.118 M 909 56.100 C 909 59.012, 915.734 65.666, 917.199 64.201 C 918.467 62.933, 916.127 58.620, 912.625 55.772 C 909.819 53.491, 909 53.565, 909 56.100 M 603.688 57.646 C 602.314 59.020, 603.026 61.142, 604.750 60.810 C 605.712 60.624, 606.500 59.841, 606.500 59.070 C 606.500 57.491, 604.736 56.598, 603.688 57.646 M 807 62 C 808.036 63.935, 811 64.824, 811 63.200 C 811 61.941, 808.735 60, 807.265 60 C 806.240 60, 806.178 60.464, 807 62 M 492.952 63.089 C 491.995 64.879, 492.096 65.128, 493.656 64.828 C 494.657 64.635, 495.628 63.695, 495.812 62.739 C 496.278 60.318, 494.306 60.560, 492.952 63.089 M 546.651 63.468 C 545.945 65.306, 547.820 66.580, 549.200 65.200 C 550.267 64.133, 549.500 62, 548.048 62 C 547.589 62, 546.960 62.661, 546.651 63.468 M 865.654 62.751 C 864.919 63.940, 869.727 68.606, 870.693 67.640 C 871.079 67.255, 870.236 65.781, 868.820 64.366 C 867.405 62.950, 865.980 62.223, 865.654 62.751 M 924.676 62.750 C 923.831 64.186, 925.832 67.681, 929.049 70.388 C 934.545 75.012, 935.751 70.261, 930.516 64.611 C 928.156 62.065, 925.566 61.240, 924.676 62.750 M 636.500 64 C 636.160 64.550, 636.148 65.430, 636.473 65.956 C 637.296 67.287, 640 66.089, 640 64.393 C 640 62.794, 637.424 62.505, 636.500 64 M 824 64.878 C 824 67.282, 826.744 69.656, 828.033 68.367 C 828.631 67.769, 828.409 66.602, 827.434 65.209 C 825.540 62.506, 824 62.357, 824 64.878 M 903 63.980 C 903 65.581, 909.744 72.589, 910.529 71.804 C 910.908 71.425, 910.238 69.738, 909.040 68.056 C 906.636 64.680, 903 62.226, 903 63.980 M 1074.866 65.981 C 1072.194 68.652, 1071.836 69.600, 1072.334 72.670 C 1073.010 76.834, 1075.524 80, 1078.155 80 C 1079.793 80, 1080 79.111, 1080 72.059 C 1080 67.691, 1079.545 63.837, 1078.989 63.493 C 1078.433 63.149, 1076.577 64.269, 1074.866 65.981 M 671.250 67.708 C 669.918 68.197, 669.488 71.010, 670.750 70.985 C 671.163 70.976, 672.171 70.545, 672.992 70.026 C 674.719 68.934, 673.248 66.976, 671.250 67.708 M 841.669 67.664 C 840.625 68.709, 840.868 69.726, 842.571 71.429 C 844.498 73.355, 846 73.454, 846 71.655 C 846 69.946, 842.558 66.775, 841.669 67.664 M 898.792 68.500 C 900.122 71.068, 906 76.686, 906 75.390 C 906 74.849, 904.145 72.627, 901.878 70.453 C 899.610 68.279, 898.222 67.400, 898.792 68.500 M 941.667 67.667 C 939.261 70.072, 944.566 79, 948.401 79 C 951.151 79, 950.360 73.597, 947.099 70.106 C 944.193 66.995, 942.913 66.420, 941.667 67.667 M 896.429 70.971 C 896.429 72.034, 896.636 72.697, 896.890 72.443 C 897.144 72.189, 898.398 72.964, 899.676 74.165 C 900.954 75.366, 902 75.904, 902 75.361 C 902 74.818, 900.746 73.173, 899.214 71.705 C 896.713 69.309, 896.429 69.234, 896.429 70.971 M 1053.655 70.829 C 1051.129 73.620, 1051.489 80.171, 1054.314 82.826 C 1058.986 87.214, 1064 84.378, 1064 77.346 C 1064 70.596, 1057.545 66.530, 1053.655 70.829 M 881 71.773 C 881 73.370, 884.982 77.351, 885.780 76.553 C 886.118 76.216, 885.180 74.726, 883.697 73.242 C 882.214 71.759, 881 71.098, 881 71.773 M 959.123 72.277 C 957.592 73.808, 957.714 76.545, 959.463 79.928 C 961.709 84.271, 966.391 85.494, 967.492 82.026 C 968.942 77.458, 962.013 69.387, 959.123 72.277 M 858 73.566 C 858 74.950, 860.081 77.817, 861.472 78.351 C 863.495 79.127, 863.466 76.609, 861.429 74.571 C 859.876 73.019, 858 72.469, 858 73.566 M 917 73.497 C 917 74.427, 924.229 82, 925.116 82 C 926.783 82, 925.997 80.067, 922.896 76.535 C 920.248 73.518, 917 71.845, 917 73.497 M 1033.200 74.200 C 1031.007 76.393, 1031.753 82.844, 1034.521 85.612 C 1037.618 88.709, 1040.907 88.440, 1042.870 84.931 C 1046.428 78.571, 1038.086 69.314, 1033.200 74.200 M 976.032 75.461 C 975.108 76.575, 975.088 77.736, 975.947 80.340 C 977.393 84.720, 980.207 87.250, 983.168 86.830 C 986.716 86.328, 986.873 81.191, 983.464 77.140 C 980.607 73.745, 977.954 73.145, 976.032 75.461 M 522.639 75.694 C 521.403 76.930, 522.017 80, 523.500 80 C 524.325 80, 525 79.127, 525 78.059 C 525 75.972, 523.682 74.651, 522.639 75.694 M 994.667 75.667 C 993.001 77.332, 994.081 83.796, 996.452 86.354 C 999.287 89.413, 1001.181 89.676, 1003.521 87.336 C 1005.629 85.228, 1004.825 80.507, 1001.810 77.298 C 999.743 75.097, 996.074 74.259, 994.667 75.667 M 1012.950 77.093 C 1010.674 81.346, 1015.011 89, 1019.696 89 C 1022.567 89, 1024.531 85.253, 1023.601 81.548 C 1022.120 75.647, 1015.260 72.778, 1012.950 77.093 M 611.345 79.543 C 611.019 80.392, 611.023 81.356, 611.352 81.686 C 612.217 82.550, 615.083 79.944, 614.430 78.887 C 613.576 77.506, 611.998 77.842, 611.345 79.543 M 915.500 83 C 917.648 85.200, 919.856 87, 920.406 87 C 920.956 87, 919.648 85.200, 917.500 83 C 915.352 80.800, 913.144 79, 912.594 79 C 912.044 79, 913.352 80.800, 915.500 83 M 875.030 82.056 C 876.213 84.267, 878.698 85.635, 879.704 84.630 C 880.566 83.768, 876.990 80, 875.310 80 C 874.227 80, 874.167 80.443, 875.030 82.056 M 909.750 81.953 C 911.871 84.409, 911.136 85.127, 908.250 83.418 C 905.527 81.807, 905.529 81.816, 908.461 84.351 C 910.089 85.759, 911.628 86.705, 911.880 86.454 C 912.132 86.202, 913.162 86.741, 914.169 87.653 C 915.176 88.564, 916 88.879, 916 88.351 C 916 87.824, 914.313 85.843, 912.250 83.949 C 910.188 82.055, 909.063 81.157, 909.750 81.953 M 933 82.894 C 933 85.256, 938.245 91, 940.401 91 C 942.372 91, 942.381 90.638, 940.506 87.011 C 939.081 84.256, 935.436 81, 933.777 81 C 933.350 81, 933 81.852, 933 82.894 M 645.667 82.667 C 645.300 83.033, 645 84.228, 645 85.322 C 645 87.239, 645.071 87.246, 646.976 85.521 C 648.063 84.538, 648.712 83.343, 648.417 82.866 C 647.779 81.833, 646.587 81.746, 645.667 82.667 M 832 85.409 C 832 86.919, 834.774 89.559, 835.548 88.786 C 836.365 87.968, 834.955 85.197, 833.423 84.609 C 832.627 84.303, 832 84.656, 832 85.409 M 680.200 86.200 C 678.804 87.596, 678.600 90, 679.878 90 C 680.360 90, 681.331 89.306, 682.035 88.458 C 683.659 86.501, 681.973 84.427, 680.200 86.200 M 892.242 90.697 C 893.726 92.180, 895.168 93.166, 895.447 92.887 C 896.363 91.971, 892.925 88, 891.216 88 C 889.909 88, 890.132 88.587, 892.242 90.697 M 949.154 89.315 C 947.004 91.905, 955.280 101.053, 957.639 98.695 C 958.775 97.559, 955.796 91.991, 952.980 89.986 C 950.766 88.410, 950.014 88.278, 949.154 89.315 M 848.601 89.837 C 847.970 90.857, 850.743 95, 852.057 95 C 853.404 95, 853.224 91.624, 851.800 90.200 C 850.393 88.793, 849.321 88.671, 848.601 89.837 M 927 89.992 C 927 91.549, 933.739 98.595, 934.500 97.833 C 934.863 97.470, 934.418 96.041, 933.510 94.656 C 931.609 91.755, 927 88.452, 927 89.992 M 712.583 92.643 C 712.237 93.547, 712.169 94.502, 712.433 94.767 C 713.363 95.697, 716 94.044, 716 92.531 C 716 90.484, 713.379 90.570, 712.583 92.643 M 866 94.345 C 866 95.695, 869.073 99, 870.329 99 C 871.585 99, 871.005 96.148, 869.429 94.571 C 867.502 92.645, 866 92.546, 866 94.345 M 923 93.601 C 923 94.897, 929.810 101.523, 930.467 100.867 C 930.740 100.594, 929.172 98.620, 926.982 96.482 C 924.792 94.344, 923 93.047, 923 93.601 M 1078.667 93.667 C 1077.616 94.718, 1077.890 102.814, 1079 103.500 C 1079.621 103.884, 1080 102.010, 1080 98.559 C 1080 92.939, 1079.870 92.463, 1078.667 93.667 M 965.667 94.667 C 965.300 95.033, 965 96.203, 965 97.267 C 965 99.626, 971.547 106.398, 972.975 105.516 C 974.976 104.279, 973.996 99.842, 971.077 96.923 C 968.123 93.969, 966.882 93.452, 965.667 94.667 M 921.584 97.093 C 922.625 98.244, 924.383 99.652, 925.489 100.222 C 926.925 100.963, 926.660 100.364, 924.563 98.130 C 921.339 94.695, 918.528 93.716, 921.584 97.093 M 1059.635 97.073 C 1056.078 99.870, 1056.151 104.018, 1059.830 108.135 C 1062.091 110.666, 1063.170 111.174, 1065.203 110.664 C 1070.507 109.333, 1071.158 100.843, 1066.253 96.984 C 1063.121 94.521, 1062.874 94.524, 1059.635 97.073 M 906.649 98.528 C 907.319 100.272, 911 102.525, 911 101.190 C 911 100.212, 907.706 97, 906.703 97 C 906.351 97, 906.327 97.688, 906.649 98.528 M 883 99.345 C 883 100.695, 886.073 104, 887.329 104 C 888.679 104, 887.950 101.265, 886.171 99.655 C 883.954 97.649, 883 97.556, 883 99.345 M 983.250 98.662 C 980.888 99.615, 981.845 104.998, 984.923 108.077 C 988.235 111.389, 989.236 111.626, 990.989 109.513 C 992.638 107.527, 991.519 103.428, 988.505 100.414 C 986.051 97.960, 985.470 97.766, 983.250 98.662 M 942 100.304 C 942 102.184, 948.594 108.302, 950.085 107.805 C 950.890 107.537, 949.978 105.875, 947.555 103.193 C 943.662 98.884, 942 98.019, 942 100.304 M 1038.395 101.520 C 1036.928 103.759, 1036.901 104.454, 1038.159 107.759 C 1040.804 114.709, 1048.200 114.769, 1048.799 107.845 C 1049.422 100.645, 1041.946 96.100, 1038.395 101.520 M 582.980 101.524 C 582.284 102.362, 581.985 103.318, 582.314 103.648 C 583.338 104.672, 586 103.143, 586 101.531 C 586 99.573, 584.602 99.569, 582.980 101.524 M 745.200 101.200 C 743.844 102.556, 743.586 105, 744.800 105 C 746.046 105, 748 102.741, 748 101.300 C 748 99.674, 746.770 99.630, 745.200 101.200 M 1000.667 100.667 C 999.244 102.089, 1000.102 107.859, 1002.116 110.420 C 1003.636 112.352, 1004.975 113.024, 1006.866 112.805 C 1009.120 112.544, 1009.545 111.960, 1009.810 108.764 C 1010.051 105.853, 1009.564 104.473, 1007.605 102.514 C 1005.189 100.098, 1002.067 99.267, 1000.667 100.667 M 1018.950 102.093 C 1017.542 104.724, 1018.518 108.825, 1021.248 111.750 C 1025.006 115.775, 1029 114.067, 1029 108.435 C 1029 101.846, 1021.586 97.167, 1018.950 102.093 M 899.910 106.832 C 900.450 107.840, 901.550 109.212, 902.356 109.881 C 904.736 111.856, 905.338 109.338, 903.036 107.036 C 900.435 104.435, 898.562 104.312, 899.910 106.832 M 939.001 108.002 C 941.178 111.059, 945 113.754, 945 112.231 C 945 111.192, 938.692 105, 937.634 105 C 937.211 105, 937.826 106.351, 939.001 108.002 M 615.954 108.086 C 615.340 109.233, 615.136 110.470, 615.501 110.834 C 616.179 111.512, 619 108.268, 619 106.809 C 619 105.220, 617.051 106.037, 615.954 108.086 M 921 106.639 C 921 107.925, 925.826 112.508, 926.486 111.848 C 926.757 111.576, 925.634 110.065, 923.990 108.490 C 922.345 106.915, 921 106.082, 921 106.639 M 957 108.965 C 957 110.556, 963.098 117, 964.604 117 C 966.866 117, 966.212 114.438, 963.099 111.106 C 960.308 108.118, 957 106.957, 957 108.965 M 650.160 111.240 C 648.746 112.654, 648.602 116.364, 649.995 115.503 C 651.600 114.511, 653.079 111.167, 652.163 110.601 C 651.699 110.314, 650.798 110.602, 650.160 111.240 M 916.220 114.981 C 917.398 116.867, 919.908 118.426, 920.620 117.713 C 921.343 116.990, 917.800 113, 916.435 113 C 915.238 113, 915.200 113.348, 916.220 114.981 M 774.667 114.667 C 774.300 115.033, 774 116.196, 774 117.250 C 774 119.843, 776.415 118.920, 776.820 116.172 C 777.129 114.069, 776.031 113.302, 774.667 114.667 M 683.494 117.020 C 682.670 119.617, 683.180 120.252, 685.406 119.398 C 687.252 118.689, 687.204 115.900, 685.335 115.278 C 684.694 115.064, 683.865 115.849, 683.494 117.020 M 873 115.772 C 873 117.207, 876.929 120.404, 877.721 119.613 C 878.110 119.223, 877.947 118.138, 877.357 117.202 C 876.186 115.342, 873 114.296, 873 115.772 M 952 116.069 C 952 117.998, 958.715 124.619, 959.686 123.647 C 960.080 123.254, 958.512 121.041, 956.201 118.730 C 953.572 116.102, 952 115.105, 952 116.069 M 973 116.810 C 973 118.949, 978.629 125, 980.619 125 C 983.003 125, 982.125 120.971, 979.077 117.923 C 975.773 114.620, 973 114.112, 973 116.810 M 937.490 119.990 C 939.065 121.634, 940.576 122.757, 940.848 122.486 C 941.508 121.826, 936.925 117, 935.639 117 C 935.082 117, 935.915 118.345, 937.490 119.990 M 891 120.345 C 891 121.085, 891.855 122.464, 892.901 123.410 C 895.216 125.505, 896.583 123.957, 895.011 121.021 C 893.796 118.750, 891 118.279, 891 120.345 M 948.318 120.250 C 949.043 122.299, 947.998 122.521, 945.965 120.750 C 945.176 120.063, 945.614 120.737, 946.939 122.250 C 949.753 125.461, 950.165 125.635, 949.308 123.250 C 948.832 121.923, 949.323 122.086, 951.336 123.921 C 955.444 127.664, 955.443 125.809, 951.335 121.932 C 949.174 119.892, 947.951 119.210, 948.318 120.250 M 989.396 121.410 C 988.674 123.292, 991.538 128.683, 993.945 129.970 C 999.706 133.054, 1000.822 128.622, 995.600 123.400 C 991.931 119.731, 990.248 119.191, 989.396 121.410 M 931 121.639 C 931 122.925, 935.826 127.508, 936.486 126.848 C 936.757 126.576, 935.634 125.065, 933.990 123.490 C 932.345 121.915, 931 121.082, 931 121.639 M 716.667 122.667 C 716.300 123.033, 716 124.116, 716 125.073 C 716 126.320, 716.566 126.665, 718 126.290 C 720.248 125.702, 720.224 125.748, 719.393 123.582 C 718.749 121.903, 717.762 121.572, 716.667 122.667 M 1064.035 123.934 C 1061.825 128.063, 1063.613 134.047, 1067.598 135.863 C 1073.738 138.660, 1077.584 130.555, 1072.927 124.635 C 1070.384 121.402, 1065.592 121.024, 1064.035 123.934 M 908 125.300 C 908 126.972, 910.028 129, 911.700 129 C 913.458 129, 913.338 127.481, 911.429 125.571 C 909.519 123.662, 908 123.542, 908 125.300 M 1007.001 125.499 C 1004.382 128.654, 1010.637 137.121, 1014.492 135.641 C 1017.026 134.669, 1016.300 129.662, 1013.195 126.687 C 1009.991 123.618, 1008.759 123.381, 1007.001 125.499 M 1044.655 125.829 C 1042.615 128.083, 1042.563 130.255, 1044.463 133.928 C 1047.996 140.761, 1056.324 138.464, 1054.511 131.157 C 1053.686 127.832, 1050.189 124, 1047.981 124 C 1047.062 124, 1045.565 124.823, 1044.655 125.829 M 966 125.497 C 966 126.427, 973.229 134, 974.116 134 C 975.783 134, 974.997 132.067, 971.896 128.535 C 969.248 125.518, 966 123.845, 966 125.497 M 1025.035 126.934 C 1023.442 129.911, 1023.773 131.577, 1026.634 134.977 C 1028.568 137.275, 1029.963 138.026, 1031.884 137.804 C 1034.089 137.548, 1034.547 136.942, 1034.799 133.948 C 1035.334 127.578, 1027.646 122.055, 1025.035 126.934 M 925 131.376 C 925 132.961, 928.775 136.558, 929.587 135.746 C 930.436 134.897, 928.294 131.327, 926.528 130.649 C 925.635 130.307, 925 130.609, 925 131.376 M 956.411 131.756 C 957.461 132.997, 958.557 133.777, 958.845 133.489 C 959.133 133.201, 960.973 134.435, 962.934 136.232 L 966.500 139.500 963.068 135.765 C 961.181 133.711, 959.417 132.249, 959.150 132.517 C 958.882 132.785, 957.726 132.216, 956.581 131.252 C 954.501 129.501, 954.501 129.501, 956.411 131.756 M 962 130.601 C 962 131.897, 968.810 138.523, 969.467 137.867 C 969.740 137.594, 968.172 135.620, 965.982 133.482 C 963.792 131.344, 962 130.047, 962 130.601 M 948.490 133.990 C 950.065 135.634, 951.576 136.757, 951.848 136.486 C 952.508 135.826, 947.925 131, 946.639 131 C 946.082 131, 946.915 132.345, 948.490 133.990 M 747.683 133.650 C 746.618 134.715, 746.881 138, 748.031 138 C 749.510 138, 750.441 135.041, 749.316 133.916 C 748.794 133.394, 748.059 133.274, 747.683 133.650 M 981.539 133.937 C 980.731 135.243, 988.635 143.344, 989.934 142.541 C 991.351 141.665, 988.729 136.624, 985.783 134.561 C 983.211 132.759, 982.346 132.632, 981.539 133.937 M 801.667 134.667 C 801.300 135.033, 801 136.196, 801 137.250 C 801 139.843, 803.415 138.920, 803.820 136.172 C 804.129 134.069, 803.031 133.302, 801.667 134.667 M 941 138.118 C 941 140.019, 944.733 143.601, 945.703 142.630 C 946.083 142.250, 945.180 140.726, 943.697 139.242 C 941.721 137.267, 941 136.966, 941 138.118 M 898.641 140.772 C 897.980 141.841, 900.698 146, 902.057 146 C 902.576 146, 903 145.395, 903 144.655 C 903 142.870, 899.353 139.620, 898.641 140.772 M 966.224 142.171 C 971.517 146.698, 975.538 149.508, 974.058 147.646 C 973.264 146.648, 970.564 144.483, 968.058 142.836 C 965.069 140.872, 964.438 140.643, 966.224 142.171 M 976 140.762 C 976 142.175, 983.921 149.413, 984.659 148.675 C 985.041 148.292, 984.037 146.595, 982.427 144.904 C 979.215 141.529, 976 139.457, 976 140.762 M 997.707 140.627 C 996.690 141.643, 999.691 146.567, 1002.414 148.352 C 1007.805 151.884, 1008.694 148.998, 1003.896 143.535 C 1000.924 140.150, 999.060 139.274, 997.707 140.627 M 916 145.800 C 916 147.906, 917.845 150, 919.700 150 C 921.588 150, 921.293 147.575, 919.171 145.655 C 916.819 143.527, 916 143.564, 916 145.800 M 975.932 147.360 C 977.819 149.345, 979.579 150.755, 979.842 150.491 C 980.502 149.831, 976.963 146.041, 974.511 144.782 C 973.272 144.145, 973.817 145.135, 975.932 147.360 M 1014.359 146.508 C 1013.221 149.472, 1020.462 157.068, 1022.956 155.527 C 1024.866 154.347, 1024.037 151.837, 1020.600 148.400 C 1016.887 144.687, 1015.248 144.190, 1014.359 146.508 M 958.242 148.697 C 959.726 150.180, 961.216 151.118, 961.553 150.780 C 962.351 149.982, 958.370 146, 956.773 146 C 956.098 146, 956.759 147.214, 958.242 148.697 M 1070.571 148.571 C 1067.058 152.085, 1070.502 161, 1075.373 161 C 1078.584 161, 1080 159.125, 1080 154.873 C 1080 152.037, 1079.370 150.649, 1077.365 149.073 C 1074.209 146.590, 1072.666 146.477, 1070.571 148.571 M 933 150.300 C 933 151.972, 935.028 154, 936.700 154 C 938.458 154, 938.338 152.481, 936.429 150.571 C 934.519 148.662, 933 148.542, 933 150.300 M 1031.368 150.485 C 1030.501 152.744, 1034.256 158.366, 1037.362 159.458 C 1042.332 161.206, 1043.168 156.119, 1038.711 151.250 C 1036.372 148.695, 1032.220 148.262, 1031.368 150.485 M 1050.499 150.644 C 1047.357 153.786, 1051.799 162, 1056.639 162 C 1061.351 162, 1061.960 155.892, 1057.711 151.250 C 1055.273 148.587, 1052.767 148.376, 1050.499 150.644 M 992.228 152.217 C 994.187 155.168, 998.791 158.542, 999.665 157.668 C 1000.590 156.743, 994.009 150, 992.182 150 C 990.961 150, 990.968 150.319, 992.228 152.217 M 775.667 151.667 C 774.449 152.885, 774.978 155, 776.500 155 C 777.333 155, 778 154.111, 778 153 C 778 151.008, 776.934 150.399, 775.667 151.667 M 987 154.601 C 987 155.897, 993.810 162.523, 994.467 161.867 C 994.740 161.594, 993.172 159.620, 990.982 157.482 C 988.792 155.344, 987 154.047, 987 154.601 M 950 155.845 C 950 156.813, 953.320 160, 954.329 160 C 955.520 160, 955.043 158.186, 953.429 156.571 C 951.720 154.863, 950 154.499, 950 155.845 M 972.146 155.937 C 972.401 156.702, 973.669 158.032, 974.964 158.892 C 976.835 160.135, 977.223 160.170, 976.854 159.063 C 976.599 158.298, 975.331 156.968, 974.036 156.108 C 972.165 154.865, 971.777 154.830, 972.146 155.937 M 827.667 157.667 C 826.309 159.024, 826.969 161.949, 828.500 161.362 C 829.325 161.045, 830 159.934, 830 158.893 C 830 156.993, 828.912 156.421, 827.667 157.667 M 1006.942 159.892 C 1008.392 162.601, 1014.002 167.117, 1015.085 166.448 C 1016.577 165.525, 1016.170 164.553, 1012.881 161.190 C 1009.345 157.573, 1005.218 156.671, 1006.942 159.892 M 966 161.965 C 966 163.307, 969.693 167, 971.035 167 C 971.741 167, 971.734 166.371, 971.012 165.023 C 969.757 162.677, 966 160.385, 966 161.965 M 1023 165.813 C 1023 168.066, 1028.015 173, 1030.305 173 C 1032.969 173, 1032.293 170.076, 1028.894 166.901 C 1025.355 163.595, 1023 163.161, 1023 165.813 M 1004.417 168.542 C 1009.516 173.045, 1011.376 173.015, 1007 168.500 C 1005.134 166.575, 1002.908 165.019, 1002.054 165.042 C 1001.079 165.068, 1001.959 166.372, 1004.417 168.542 M 924.214 168.195 C 925.970 170.841, 928 171.692, 928 169.783 C 928 167.990, 925.990 166, 924.178 166 C 922.960 166, 922.965 166.314, 924.214 168.195 M 941 170.800 C 941 172.906, 942.845 175, 944.700 175 C 946.588 175, 946.293 172.575, 944.171 170.655 C 941.819 168.527, 941 168.564, 941 170.800 M 982 169.810 C 982 171.090, 985.439 174, 986.951 174 C 988.008 174, 988.009 173.715, 986.955 172.445 C 985.275 170.422, 982 168.680, 982 169.810 M 1039.438 170.100 C 1038.549 171.538, 1041.973 176.096, 1045.372 178 C 1047.701 179.305, 1048.168 179.312, 1048.955 178.054 C 1050.050 176.306, 1048.634 173.203, 1045.633 170.772 C 1043.190 168.793, 1040.431 168.494, 1039.438 170.100 M 802.667 171.667 C 801.290 173.043, 802.073 175, 804 175 C 806.202 175, 806.273 174.876, 805.393 172.582 C 804.749 170.903, 803.762 170.572, 802.667 171.667 M 1057.667 172.667 C 1055.112 175.221, 1060.042 182, 1064.455 182 C 1068.111 182, 1068.257 178.041, 1064.739 174.250 C 1062.735 172.091, 1059.065 171.269, 1057.667 172.667 M 1076.200 173.200 C 1074.337 175.063, 1074.771 177.628, 1077.468 180.694 L 1079.937 183.500 1079.968 177.750 C 1080.001 171.888, 1078.873 170.527, 1076.200 173.200 M 958.411 174.145 C 958.051 174.726, 958.667 176.111, 959.778 177.222 C 962.188 179.632, 964.501 178.804, 963.030 176.057 C 961.816 173.788, 959.280 172.738, 958.411 174.145 M 1017 174.392 C 1017 176.210, 1024.008 182.113, 1025.253 181.344 C 1026.236 180.736, 1021.616 175.433, 1018.750 173.879 C 1017.448 173.173, 1017 173.304, 1017 174.392 M 1003.934 177.268 C 1005.340 178.857, 1006.636 179.589, 1007.001 178.999 C 1007.358 178.420, 1010.210 180.283, 1013.566 183.286 C 1020.856 189.809, 1033.857 198.648, 1030 194.458 C 1028.625 192.964, 1026.150 191.166, 1024.500 190.462 C 1022.850 189.757, 1018.406 186.449, 1014.623 183.110 C 1010.841 179.771, 1007.325 177.299, 1006.810 177.617 C 1006.295 177.935, 1004.890 177.368, 1003.687 176.355 C 1001.869 174.825, 1001.911 174.979, 1003.934 177.268 M 975.569 178.888 C 974.880 180.004, 978.344 184, 980 184 C 981.674 184, 981.126 182.467, 978.605 180.099 C 977.137 178.720, 975.963 178.251, 975.569 178.888 M 998 178.885 C 998 179.372, 999.125 180.507, 1000.500 181.408 C 1003.397 183.306, 1003.862 182.090, 1001.171 179.655 C 999.143 177.819, 998 177.542, 998 178.885 M 1015.500 181.523 C 1017.700 183.419, 1019.950 184.958, 1020.500 184.943 C 1021.050 184.929, 1019.738 183.360, 1017.583 181.458 C 1015.429 179.556, 1013.179 178.017, 1012.583 178.038 C 1011.988 178.058, 1013.300 179.627, 1015.500 181.523 M 853.047 181.911 C 852.349 183.217, 852.332 184.087, 852.997 184.498 C 854.335 185.325, 856 184.218, 856 182.500 C 856 180.188, 854.166 179.822, 853.047 181.911 M 1032 181.896 C 1032 183.274, 1038.880 189, 1040.535 189 C 1042.907 189, 1042.237 187.415, 1038.465 184.104 C 1035.042 181.098, 1032 180.059, 1032 181.896 M 932 184.845 C 932 186.185, 935.591 189.076, 936.333 188.333 C 936.702 187.964, 936.259 186.838, 935.347 185.831 C 933.598 183.899, 932 183.428, 932 184.845 M 992 185.845 C 992 186.813, 995.320 190, 996.329 190 C 997.825 190, 996.869 187, 995.066 186.035 C 992.719 184.779, 992 184.734, 992 185.845 M 1027 187.913 C 1027 189.158, 1035.215 195.120, 1035.930 194.394 C 1036.527 193.786, 1029.051 187.041, 1027.750 187.015 C 1027.338 187.007, 1027 187.411, 1027 187.913 M 1048.552 187.916 C 1047.811 189.115, 1053.307 194.585, 1055.945 195.275 C 1059.272 196.145, 1059.262 194.368, 1055.918 190.560 C 1052.911 187.135, 1049.738 185.996, 1048.552 187.916 M 949 191.265 C 949 192.735, 950.941 195, 952.200 195 C 953.824 195, 952.935 192.036, 951 191 C 949.464 190.178, 949 190.240, 949 191.265 M 1065.484 192.025 C 1064.580 193.489, 1071.620 200.220, 1073.645 199.828 C 1076.488 199.276, 1076.311 197.157, 1073.159 194.005 C 1070.150 190.996, 1066.674 190.100, 1065.484 192.025 M 829.012 193.978 C 827.497 196.808, 828.559 197.870, 830.731 195.698 C 831.968 194.460, 832.119 193.719, 831.300 192.900 C 830.480 192.080, 829.874 192.366, 829.012 193.978 M 1010.242 194.697 C 1011.726 196.180, 1013.291 197.042, 1013.720 196.611 C 1014.574 195.753, 1010.457 192, 1008.662 192 C 1008.048 192, 1008.759 193.214, 1010.242 194.697 M 966.159 195.552 C 966.570 197.640, 969.600 199.734, 970.667 198.667 C 971.734 197.600, 969.640 194.570, 967.552 194.159 C 966.355 193.924, 965.924 194.355, 966.159 195.552 M 1043 196.381 C 1043 198.072, 1048.955 203, 1050.999 203 C 1052.595 203, 1049.797 199.709, 1045.750 196.824 C 1043.486 195.210, 1043 195.132, 1043 196.381 M 1029.942 198.375 C 1031.286 199.840, 1032.861 200.862, 1033.442 200.647 C 1034.024 200.431, 1036.075 201.388, 1038 202.773 L 1041.500 205.290 1038.913 202.580 C 1037.490 201.090, 1035.645 199.771, 1034.813 199.649 C 1033.981 199.527, 1031.995 198.591, 1030.400 197.569 L 1027.500 195.712 1029.942 198.375 M 984 198.300 C 984 199.972, 986.028 202, 987.700 202 C 989.692 202, 989.244 199.201, 987.066 198.035 C 984.539 196.683, 984 196.729, 984 198.300 M 1024 199.909 C 1024 201.168, 1028.842 204.491, 1029.589 203.745 C 1029.878 203.455, 1028.739 202.238, 1027.058 201.041 C 1025.376 199.844, 1024 199.334, 1024 199.909 M 1042.500 203.582 C 1044.700 205.628, 1045.713 207.023, 1044.750 206.682 C 1041.509 205.535, 1042.964 206.933, 1049.739 211.479 C 1053.446 213.966, 1056.091 216, 1055.617 216 C 1054.305 216, 1057.060 218.977, 1059.418 220.107 C 1060.791 220.766, 1060.478 220.197, 1058.500 218.439 C 1056.784 216.914, 1056.249 216.022, 1057.250 216.355 C 1060.284 217.365, 1059.193 216.360, 1052.561 212.040 C 1048.975 209.704, 1046.329 207.307, 1046.588 206.631 C 1046.845 205.963, 1045.805 204.506, 1044.277 203.394 C 1039.234 199.721, 1038.439 199.806, 1042.500 203.582 M 1001.510 201.984 C 1000.759 203.200, 1004.780 207.254, 1005.993 206.504 C 1007.270 205.715, 1006.334 203.690, 1004.027 202.249 C 1002.867 201.525, 1001.859 201.418, 1001.510 201.984 M 1058.535 202.943 C 1057.855 204.044, 1064.606 210, 1066.535 210 C 1068.728 210, 1068.316 208.666, 1065.250 205.834 C 1062.082 202.907, 1059.298 201.708, 1058.535 202.943 M 1018 207.977 C 1018 209.287, 1022.895 212.438, 1023.692 211.642 C 1024.553 210.781, 1021.012 207, 1019.345 207 C 1018.605 207, 1018 207.440, 1018 207.977 M 1075.378 208.198 C 1075.034 208.753, 1075.934 210.388, 1077.377 211.831 L 1080 214.455 1080 211.344 C 1080 209.075, 1079.459 208.092, 1078.001 207.711 C 1076.902 207.423, 1075.721 207.642, 1075.378 208.198 M 958.750 211.194 C 959.957 212.401, 961.246 213.087, 961.615 212.719 C 962.588 211.746, 960.033 209, 958.155 209 C 956.870 209, 956.986 209.431, 958.750 211.194 M 1056.962 212.041 C 1058.866 213.668, 1061.066 215, 1061.850 215 C 1062.634 215, 1061.576 213.650, 1059.500 212 C 1054.619 208.121, 1052.418 208.157, 1056.962 212.041 M 1036.306 215.532 C 1039.967 218.753, 1042.033 218.729, 1039 215.500 C 1037.708 214.125, 1035.942 213.014, 1035.076 213.032 C 1033.960 213.054, 1034.319 213.783, 1036.306 215.532 M 974 214.845 C 974 215.813, 977.320 219, 978.329 219 C 979.520 219, 979.043 217.186, 977.429 215.571 C 975.720 213.863, 974 213.499, 974 214.845 M 1072.417 219.542 C 1076.846 223.453, 1080.657 224.488, 1077.407 220.898 C 1075.493 218.783, 1070.787 215.964, 1069.300 216.042 C 1068.860 216.065, 1070.262 217.640, 1072.417 219.542 M 992 218.965 C 992 221.612, 995.789 223.713, 996.627 221.530 C 997.322 219.717, 995.374 217, 993.378 217 C 992.620 217, 992 217.884, 992 218.965 M 1063.344 220.700 C 1064.358 221.891, 1065.771 222.641, 1066.483 222.368 C 1067.196 222.095, 1069.291 223.406, 1071.139 225.283 C 1072.988 227.159, 1075.850 229.543, 1077.500 230.581 C 1079.888 232.083, 1079.582 231.539, 1076 227.914 C 1070.861 222.714, 1066.228 219.438, 1065.311 220.356 C 1064.966 220.701, 1063.968 220.432, 1063.092 219.759 C 1062.033 218.945, 1062.118 219.260, 1063.344 220.700 M 1010 220.929 C 1010 222.131, 1012.869 225, 1014.071 225 C 1015.392 225, 1015.222 222.622, 1013.800 221.200 C 1012.378 219.778, 1010 219.608, 1010 220.929 M 1053.365 222.583 C 1054.941 223.969, 1056.516 224.816, 1056.865 224.465 C 1057.629 223.698, 1053.254 219.987, 1051.639 220.032 C 1051.013 220.049, 1051.789 221.197, 1053.365 222.583 M 1028.177 224.643 C 1028.563 226.607, 1031.611 228.722, 1032.613 227.721 C 1033.404 226.929, 1030.207 223, 1028.772 223 C 1028.267 223, 1027.999 223.739, 1028.177 224.643 M 1045 228.265 C 1045 230.191, 1047.094 232, 1049.322 232 C 1050.948 232, 1051.046 231.760, 1049.955 230.445 C 1047.888 227.955, 1045 226.684, 1045 228.265 M 983 232.845 C 983 233.310, 983.900 234.505, 985 235.500 C 986.588 236.937, 987 237.010, 987 235.855 C 987 234.286, 985.102 232, 983.800 232 C 983.360 232, 983 232.380, 983 232.845 M 1062 233.640 C 1062 234.654, 1065.359 236.933, 1066.905 236.968 C 1067.971 236.992, 1067.873 236.517, 1066.500 235 C 1064.784 233.104, 1062 232.262, 1062 233.640 M 1000 237.772 C 1000 239.207, 1003.929 242.404, 1004.721 241.613 C 1005.110 241.223, 1004.947 240.138, 1004.357 239.202 C 1003.186 237.342, 1000 236.296, 1000 237.772 M 1018.306 240.645 C 1017.714 242.189, 1020.221 245, 1022.191 245 C 1023.432 245, 1023.151 241.551, 1021.800 240.200 C 1020.155 238.555, 1019.054 238.696, 1018.306 240.645 M 1036.664 241.669 C 1035.775 242.558, 1038.946 246, 1040.655 246 C 1042.324 246, 1042.408 243.808, 1040.800 242.200 C 1039.471 240.871, 1037.691 240.643, 1036.664 241.669 M 1054.664 243.669 C 1053.775 244.558, 1056.946 248, 1058.655 248 C 1060.683 248, 1060.269 245.214, 1058.066 244.035 C 1055.787 242.815, 1055.544 242.789, 1054.664 243.669 M 1073.500 249 C 1075.307 250.996, 1078 251.715, 1078 250.200 C 1078 248.742, 1075.629 247, 1073.645 247 C 1071.753 247, 1071.749 247.065, 1073.500 249 M 1009 255.800 C 1009 257.102, 1011.286 259, 1012.855 259 C 1014.010 259, 1013.937 258.588, 1012.500 257 C 1010.641 254.946, 1009 254.383, 1009 255.800 M 1026 259.800 C 1026 261.224, 1028.351 263, 1030.235 263 C 1031.760 263, 1031.890 262.662, 1031 261 C 1029.976 259.087, 1026 258.133, 1026 259.800 M 1045.180 262.250 C 1045.386 263.696, 1046.304 264.614, 1047.750 264.820 C 1050.223 265.171, 1050.796 263.196, 1048.800 261.200 C 1046.804 259.204, 1044.829 259.777, 1045.180 262.250 M 1064.323 261.601 C 1063.635 263.394, 1066.612 266.358, 1068.147 265.409 C 1069.672 264.467, 1069.048 262.096, 1066.985 260.992 C 1065.371 260.128, 1064.842 260.249, 1064.323 261.601 M 1036.500 279 C 1037.495 280.100, 1038.690 281, 1039.155 281 C 1040.653 281, 1040.052 278.234, 1038.418 277.607 C 1035.435 276.462, 1034.692 277.002, 1036.500 279 M 1053.221 280.164 C 1053.435 280.805, 1054.555 281.956, 1055.710 282.723 C 1058.327 284.461, 1059.663 282.805, 1057.438 280.581 C 1055.603 278.746, 1052.651 278.454, 1053.221 280.164 M 1072.473 280.044 C 1071.569 281.506, 1073.870 284, 1076.122 284 C 1078.412 284, 1078.530 282.673, 1076.429 280.571 C 1074.600 278.743, 1073.378 278.580, 1072.473 280.044 M 1062.675 296.658 C 1061.774 297.559, 1063.926 300, 1065.622 300 C 1067.319 300, 1067.396 298.796, 1065.800 297.200 C 1064.444 295.844, 1063.631 295.703, 1062.675 296.658" stroke="none" fill="#e4e4e8" fill-rule="evenodd"/></svg>